<svg xmlns="http://www.w3.org/2000/svg" xml:space="preserve" width="37.903519" height="14.000001" version="1.0">
  <path d="M99.5 331v54.4h39.4V331h-3.3m7 0v79.9H182V331h-2.6m6.3 0v47.1H225V331h-1.9m5.6 0v58.1h39.4V331h-1.4m5.1 0v77.4h39.4V331h-.9m4.6 0v69h39.4v-69h-.4" style="fill:#000" transform="translate(-6.280433 -11.935978) scale(.06312)"/>
  <path d="M16.316502 8.956717h2.486925v3.35798h-2.486925z" style="fill:#000;stroke-width:.0631199"/>
  <path d="M401.1 387.8v13.4h39.4V331h-39.4m172.8 3.2V366h39.4v-35h-39.4m43.1 2.4v53.2h39.4V331H617m43.1 1.8v69.6H700V331h-39.9" style="fill:#000" transform="translate(-6.280433 -11.935978) scale(.06312)"/>
  <path d="M21.757441 8.956717h2.486925v3.130748h-2.486925z" style="fill:#000;stroke-width:.0631199"/>
  <path d="M487.3 384.2v9.7h39.4V331h-39.4m43.1 4.5v39h39.8V331h-39.8m-390.1-3.8 21.2-17.5h-33.1l-24.8 17.5h35.3m43.1 0h1.2l17.8-17.5h-33.7L146 327.2m79 0h1.1l10.8-13.3 3.4-4.2h-34.1l-17.8 17.5m79.7 0h.9l5.4-8.8 5.3-8.7h-34.6l-14.3 17.5m80.4 0h.7l3.6-8.8 3.5-8.7h-35l-10.7 17.5m81 0h.4l1.8-8.8 1.8-8.7H323l-3.6 8.7-3.5 8.8m81.5-8.8.1-8.7H362l-3.6 17.5h39m42.6 0-3.4-17.5h-35.4l-.1 8.7v8.8m171.7 0h37.8l-17.7-17.5h-34.2l7 8.7 7.1 8.8m44 0H653l-21.3-17.5H598l17.8 17.5m42.9 0h37.2L671 309.7h-33.5l21.2 17.5m-214.5 0h38.4l-7-17.5h-35.3l1.8 8.7 1.7 8.8m43.4 0h38l-10.6-17.5h-35l3.5 8.7 3.5 8.8m43.6 0h37.9L554 309.7h-35.1l5.3 8.7 5.3 8.8" style="fill:#000" transform="translate(-6.280433 -11.935978) scale(.06312)"/>
  <path d="M3.490532 2.890893v1.786294c0 .290351.170424.416591.511271.416591.088368 0 .183048-.00631.271416-.018936l.06312.486024c-.176736.037872-.359784.056808-.53652.06312-.593327 0-.908926-.302976-.908926-1.003607v-1.74211h-.523896v-.075744l.523896-.492336v-.555455l.599639-.435528v1.04148h.965735v.517583m2.960324.807935H5.586113c.069432-.549144.397656-.88368.927863-.88368.580704 0 .871055.385032.902615.88368m.549144.454463c.018936-.100992.025248-.201984.025248-.302975 0-.871055-.50496-1.533815-1.432823-1.533815-1.01623 0-1.596934.801623-1.596934 1.672678 0 .921551.593328 1.641119 1.767358 1.641119.359784-.012624.719567-.075744 1.066727-.183048l-.107304-.511272c-.290352.107304-.593327.170424-.896303.195672-.839495 0-1.155095-.41028-1.224527-.959423h2.398558m2.373309 1.470695c.391344-.00631.776375-.119928 1.110911-.328224l-.208296-.454464c-.277728.164112-.593327.258792-.921551.265104-.618575.018936-1.136159-.467087-1.161407-1.085663V3.98918c0-.725879.479712-1.161406 1.123535-1.161406.321912.00631.643824.100992.921551.265103l.246168-.454463c-.334536-.208296-.719567-.3156-1.110911-.328224-1.035167 0-1.767358.751128-1.767358 1.672678 0 .921551.72588 1.64743 1.767358 1.64743m8.48963-.06312V3.402165c0-.637511-.340847-1.085663-1.098286-1.085663-.460776.018936-.889991.214608-1.205591.549144V2.37962h-.580703v3.187557h.618575V3.332732c.246168-.265103.631199-.517583.997295-.517583.473399 0 .662759.25248.662759.744815v2.007214m1.64743 0h.612264V2.37962h-.618576zm.309288-3.913436c.214608-.00631.37872-.176736.37872-.391343-.0063-.214608-.176736-.37872-.391344-.37872-.208296.006312-.37872.176736-.37872.385032.0063.214607.176736.385031.391344.385031m2.859333 3.970244c.391343-.00631.776375-.119928 1.11091-.328224l-.208295-.454464c-.277728.164112-.593328.258792-.921551.265104-.618576.018936-1.136159-.467087-1.161407-1.085663v-.037872c0-.725879.479711-1.161406 1.123535-1.161406.321911.00631.643823.100992.921551.265103l.246167-.454463c-.334535-.201984-.719567-.3156-1.11091-.328224-1.035167 0-1.767358.751128-1.767358 1.672679 0 .92155.732191 1.641118 1.767358 1.64743m3.219116-2.827773c.624887 0 1.041479.4734 1.041479 1.17403 0 .700632-.416592 1.16772-1.041479 1.16772s-1.054103-.4734-1.054103-1.16772c0-.70063.422904-1.17403 1.054103-1.17403m0 2.827773c.915239 0 1.660054-.738504 1.660054-1.653743 0-.915238-.738503-1.660054-1.653742-1.660054s-1.660054.738504-1.660054 1.653743v.012624c-.03156.883678.662759 1.628494 1.546438 1.653742.03787 0 .07574 0 .107304-.00631m2.354373-.056808h.612264V0h-.612264ZM31.5789 2.796213c.624887 0 1.041479.4734 1.041479 1.17403 0 .700632-.422904 1.16772-1.041479 1.16772-.624887 0-1.047791-.4734-1.047791-1.16772 0-.70063.422904-1.17403 1.047791-1.17403m0 2.827773c.915239 0 1.653742-.744816 1.653742-1.660055 0-.915238-.744815-1.653742-1.660054-1.653742-.915239 0-1.653742.744816-1.653742 1.660055-.03156.883678.662759 1.628494 1.546438 1.653742h.113616m2.947701-2.240758c.227231-.321911.662759-.486023 1.136158-.486023V2.3165c-.460775.00631-.889991.227232-1.167718.593328V2.37962h-.580704v3.187557h.612264V3.395852M15.104599 5.567178V3.402164c0-.637511-.391344-1.085663-1.142471-1.085663-.448151.012624-.871055.208296-1.174031.53652V0h-.612263v5.567178h.612263V3.332732c.239856-.265103.656448-.517583 1.016231-.517583.467088 0 .688007.25248.688007.744815v2.007214" style="fill:#000;stroke-width:.0631199"/>
</svg>
