<?xml version="1.0" encoding="UTF-8" standalone="no"?>
<svg xmlns="http://www.w3.org/2000/svg" width="13.210099" height="14" viewBox="0 0 1.0185304 1.0794336">
  <g fill="#c7254e" fill-rule="evenodd" clip-rule="evenodd" transform="matrix(.00723 0 0 .00723 -.18796002 -.02049643)">
    <path d="M77.431 152.045h32.866v-.947c-3.717.035-11.004-1.75-10.02-6.924l4.445-22.373c18.691 6.268 29.695-10.092 32.865-24.266 1.895-8.381-.145-21.972-6.121-22.919-6.85-1.13-15.412 12.68-20.113 16.834l2.113-10.858c1.166-6.085-7.578-8.636-12.498-3.79L89.71 87.952l.365 2.186 7.542-6.741c1.42-1.275 2.988-.401 2.695 1.166l-12.388 58.955c-.838 4.045-5.283 6.268-10.421 7.361zm32.647-53.928l-3.17 14.139c-.766 3.57 1.75 6.994 4.445 7.396 6.74.982 13.299-11.588 14.283-19.129.656-5.102 1.312-13.92-3.279-14.576-4.045-.583-7.687 7.069-12.279 12.17zM42.014 72.466v40.591c0 3.389.292 6.631 8.417 7.578v1.604H25.982v-1.748c5.538-.037 8.234-3.898 8.234-7.434V86.203c0-3.862-4.882-5.283-7.251-5.32v-1.275zm-5.502-26.162a4.96 4.96 0 0 1 4.955 4.955 4.961 4.961 0 0 1-4.955 4.956 4.961 4.961 0 0 1-4.956-4.956 4.962 4.962 0 0 1 4.956-4.955zm121.845 26.162v40.591c0 3.389.291 6.631 8.418 7.578v1.604h-24.451v-1.748c5.539-.037 8.236-3.898 8.236-7.434V86.203c0-3.862-4.883-5.283-7.252-5.32v-1.275zm-5.502-26.162a4.96 4.96 0 0 1 4.955 4.955c0 2.733-2.223 4.956-4.955 4.956s-4.955-2.223-4.955-4.956a4.96 4.96 0 0 1 4.955-4.955z"/>
    <path d="M101.734 38.834c-12.352-1.021-24.085 8.453-27.146 21.425l-3.17 13.373-9.947 2.769-.729 3.316h8.708l-12.535 59.246c-.765 3.826-2.514 9.146-8.38 5.939-3.826-2.113-5.174-10.201-11.842-6.303-3.826 2.223-2.805 7.688 1.421 10.129 3.243 1.895 8.6 1.713 10.822 1.494 12.389-1.348 21.097-15.34 23.319-25.943l9.474-44.562h9.073l.875-4.299-8.49-1.421 5.939-26.708c.546-2.514 2.696-6.449 6.959-1.566 2.441 2.769 5.21 5.101 8.599 5.174 3.352.073 8.344-1.421 6.668-6.887-1.018-3.5-4.663-4.811-9.618-5.176zM38.079 15.842C54.257 8.264 74.844 2.908 93.536 2.834c20.478-.073 42.485 5.21 60.304 12.315-20.041-3.534-39.973-6.595-60.085-6.522-18.438.074-37.786 3.426-55.676 7.215z"/>
  </g>
</svg>
