<?xml version="1.0" encoding="UTF-8" standalone="no"?>
<svg xmlns="http://www.w3.org/2000/svg" width="29.845663" height="13.000002">
  <g transform="scale(.02937)">
    <path d="M312.18831 372v18S43.188313 505 3.1883132 395C-36.811687 285 307.73132 13.36022 578.18831 0c-270 55-489.999997 265-470 345 20 80 204 27 204 27z"/>
    <path d="M669.18831 167h40s144-132 19-157-415 105-503 233c77-82 263-188 398-183s46 107 46 107z"/>
    <path d="M342.18831 441V197h25l81 205 81-205h26v244h-26V267l-70 174h-22l-70-174v174zM616.18831 441h27V224h96c7 0 17 7 17 16v45c0 10-8 19-19 19h-77v27h80c25 0 43-18 43-42v-50c0-23-19-42-42-42h-125zM868.18831 196.83789c-20-.16157-38 18.16211-38 38.16211v170c0 20 18 36 38 36h110c20 0 37.99999-16 37.99999-36V235c0-20-17.99999-38-37.99999-38zm5 27.16211h99c10 0 17 6 17 16v157c0 10-7 17-17 17h-99c-10 0-16-7-16-17V240c0-10 6-16 16-16z"/>
  </g>
</svg>
