<?xml version="1.0" encoding="UTF-8" standalone="no"?>
<svg xmlns="http://www.w3.org/2000/svg" xmlns:xlink="http://www.w3.org/1999/xlink" width="30.759539" height="13.999999" version="1" viewBox="-.463 -.882 30.737025 13.999999">
  <defs>
    <path id="a" d="M0 .002v247.834h582.869V.002"/>
    <clipPath id="b">
      <use width="584" height="249" xlink:href="#a"/>
    </clipPath>
  </defs>
  <path fill="#c7254e" d="M135.894 16.453C158.619 8.18 181.151 2.747 202.448.011c.762-.096.955.521.168.755-12.903 4.148-26.031 9.276-39.143 15.382C75.413 57.201 21.585 126.981 42.529 171.877c11.748 25.165 44.567 37.386 86.8 35.981.803-.016.834.675.064.778-62.117 7.118-113.281-8.874-126.288-44.607C-14.581 115.45 45.169 49.473 135.894 16.453" clip-path="url(#b)" transform="matrix(.05649 0 0 .05649 -.47439464 -.88211298)"/>
  <path fill="#c7254e" d="M14.84423684.02324296c1.21932413.4437244 1.52351966 1.65451862.26019027 3.36659996-.02310417.03129514-.05569857.0208446-.04490909-.01361395.35497952-.9546147.01999726-2.06384096-1.25242693-2.41288909-2.08061832-.5707126-5.5320089.55348334-8.0441499 2.2900811-.03445854.02355608-.0634941.0031634-.03496695-.02626759C9.11728295.16017331 13.29213354-.54153826 14.84423684.02324296"/>
  <path fill="none" stroke="#c7254e" stroke-miterlimit="3.86400008" stroke-width=".11298" d="M7.62596226 10.92637889h21.66702545"/>
  <path fill="#c7254e" d="M7.57653402 8.29041308c0-.94777948-1.2910092-.80231923-1.2910092-1.23886947 0-.16274601.15144813-.23793343.38983348-.23793343.2969084 0 .54664812.08744562.77921506.17997529V6.4119704c-.22663555-.0870502-.50631467-.13964184-.80231923-.13964184-.66318579 0-1.04121299.33775024-1.04121299.814182 0 .93648161 1.26784855.7501795 1.26784855 1.24474438 0 .18585019-.18630211.290977-.47140421.290977-.2729004 0-.5344464-.10512681-.7384297-.24431674l-.22618364.51134223c.22618364.14003727.56387739.25612303 1.0171485.25612303.59342135 0 1.11651338-.23844185 1.11651338-.85496738"/>
  <path fill="#c7254e" fill-rule="evenodd" d="M10.82032599 7.70343152c0-.41932096-.12828748-.77921506-.36672932-1.03533809-.24431674-.24973972-.58743348-.39576487-1.01217743-.39576487-.40073594 0-.7325548.14596866-.97641962.38983348-.25612303.26199793-.40158329.63369832-.40158329 1.06386525 0 .44242514.15139165.82039585.42474395 1.07617994.23798993.22070416.5638774.34311674.94783598.34311674.41248575 0 .7501795-.14557324.99410081-.39576488.25606654-.25555814.39022892-.62776692.39022892-1.04612757m-.71526904.00547948c0 .51766904-.22166448.89569624-.65731089.89569624-.42474395 0-.67448368-.36085442-.67448368-.89569624 0-.51185064.21488576-.88355102.65685898-.88355102.43011044 0 .6749356.3545276.6749356.88355102z"/>
  <path fill="#c7254e" d="M13.88278691 9.08730933V7.26106287c0-.7384297-.44784812-.98867783-.86666068-.98867783-.3721523 0-.66815686.13964185-.96506525.36085442l-.07569582-.2968519h-.59291295v2.75097826h.69758784V7.16226288c.21533767-.16268953.4532711-.29058158.69809626-.29058158.3544711 0 .40706276.31374224.40706276.59878785v1.61689667h.69758784"/>
  <path fill="#c7254e" fill-rule="evenodd" d="M17.20221821 7.70343152c0-.41932096-.12828747-.77921506-.3662209-1.03533809-.24476867-.24973972-.5879419-.39576487-1.01268584-.39576487-.40067946 0-.73249831.14596866-.97636314.38983348-.25567111.26199793-.40163977.63369832-.40163977 1.06386525 0 .44242514.15139164.82039585.42474395 1.07617994.23844184.22070416.56387739.34311674.94777949.34311674.41305063 0 .7501795-.14557324.9941008-.39576488.25657495-.25555814.39028541-.62776692.39028541-1.04612757m-.71532552.00547948c0 .51766904-.22115608.89569624-.6572544.89569624-.42423555 0-.67448368-.36085442-.67448368-.89569624 0-.51185064.21482926-.88355102.6572544-.88355102.43022342 0 .67448368.3545276.67448368.88355102zm3.8303781-.04084186c0-.85440247-.50625818-1.39574058-1.48318621-1.39574058-.44739621 0-.78508996.0875021-1.06979664.1863586v4.00125859h.69764434V9.08143443c.12246906.04038994.26792932.06400252.40711925.06400252.8372297-.0000565 1.44821926-.59890084 1.44821926-1.4773678m-.72707533.03536237c0 .53489832-.27877528.88936943-.76791717.88936943-.14500834 0-.25555814-.02858365-.36034601-.069369V6.8887976c.093377-.02310418.18590668-.04033345.32006905-.04033345.45372302.00005649.80819413.2734088.80819413.85496737z"/>
  <path fill="#c7254e" d="M22.69440207 6.38886623c-.10473138-.07569582-.25612303-.11653767-.39570839-.11653767-.2557276 0-.47055686.1051833-.75029247.35543143l-.08106232-.29148541h-.58754646v2.75097826h.69809625V7.13904573c.20946277-.1799753.36085442-.24431675.53489832-.24431675.08157072 0 .20358787.0176812.31956065.08750212l.26205442-.59336487"/>
  <path fill="#c7254e" fill-rule="evenodd" d="M25.3334748 7.89515661v-.20353138c0-.85496737-.48868998-1.41929667-1.23293809-1.41929667-.78514645 0-1.25022384.6518879-1.25022384 1.43652595 0 .73882512.40706276 1.43652595 1.36619662 1.43652595.32600045 0 .69222136-.08750212 1.00042763-.30238787l-.16850794-.44790461c-.23844184.12828747-.453836.192177-.71532552.192177-.42480044 0-.76147739-.2851021-.77373559-.69216486h1.77410672m-.72125691-.49445189h-1.07019206c0-.30233138.20403978-.60466275.54077322-.60466275.35497951-.0000565.51761255.30814978.52941884.60466275z"/>
  <path fill="#c7254e" d="M27.815168 8.29041308c0-.94777948-1.2905008-.80231923-1.2905008-1.23886947 0-.16274601.15093972-.23793343.38938157-.23793343.29645647 0 .5467046.08744562.77927154.17997529V6.4119704c-.22714395-.0870502-.50597573-.13964184-.80237572-.13964184-.6631293 0-1.04076107.33775024-1.04076107.814182 0 .93648161 1.26739663.7501795 1.26739663 1.24474438 0 .18585019-.1857937.290977-.4708958.290977-.27335231 0-.53546322-.10512681-.7384297-.24431674l-.22714396.51134223c.22714395.14003727.56393387.25612303 1.01810881.25612303.59291295 0 1.1159485-.23844185 1.1159485-.85496738m2.47011286 0c0-.94777948-1.29146112-.80231923-1.29146112-1.23886947 0-.16274601.15139165-.23793343.389777-.23793343.2969084 0 .54715652.08744562.77972346.17997529V6.4119704c-.22714395-.0870502-.50586275-.13964184-.80271465-.13964184-.66279037 0-1.04132597.33775024-1.04132597.814182 0 .93648161 1.26790503.7501795 1.26790503 1.24474438 0 .18585019-.1863586.290977-.47055687.290977-.2734088 0-.53535023-.10512681-.7389381-.24431674l-.22663555.51134223c.22663555.14003727.56393388.25612303 1.01726147.25612303.59330838 0 1.1169653-.23844185 1.1169653-.85496738"/>
  <path fill="#c7254e" fill-rule="evenodd" d="M16.07485886 13.09308708c-.01722928-.0543993-.02220035-.1409411-.02220035-.3091666v-.46326973c0-.30690701-.17585156-.4260997-.4655293-.4260997-.1559673 0-.30233138.02496833-.45829867.1292478l.09654042.18534179c.07439656-.04440068.17364848-.0865418.29515722-.0865418.13094247 0 .23025087.05439932.23025087.19805191v.02948748l-.20810702.00768256c-.29961988.00999863-.49044114.1409976-.49044114.3839586 0 .23025087.16862091.37621953.3839021.37621953.1559108 0 .26244984-.05937038.3395014-.1286829l.04897634.10377106h.25024813m-.32402332-.28465018c-.03942961.03491046-.10648255.07428358-.2103101.07428358-.12422024 0-.19087776-.06660102-.19087776-.16319793 0-.09925191.07168508-.15365122.23256694-.15867878l.16862092-.00497107z"/>
  <path fill="#c7254e" d="M17.11703217 11.9439793c-.04440069-.03174705-.10879863-.04942824-.1682255-.04942824-.10925054 0-.20121531.04490909-.31944767.15144813l-.03496695-.12422023h-.25024813v1.17130812h.2974168v-.82903872c.08880137-.07705157.15359473-.10427947.22753938-.10427947.03479748 0 .0870502.00723064.13597004.03666163l.11196203-.25245122m1.20034368-.02220034h-.29459232l-.29702137.79780008h-.0053665l-.29199381-.79780008h-.2968519l.480499 1.17904717h.21528118l.49004572-1.17904717"/>
  <path fill="#c7254e" fill-rule="evenodd" d="M19.38937557 13.09308708c-.01728576-.0543993-.02259576-.1409411-.02259576-.3091666v-.46326973c0-.30690701-.17545614-.4260997-.4655858-.4260997-.1559108 0-.30137106.02496833-.45779026.1292478l.09654042.18534179c.07479199-.04440068.1735355-.0865418.29459232-.0865418.13150737 0 .23036386.05439932.23036386.19805191v.02948748l-.20810703.00768256c-.29916797.00999863-.48998923.1409976-.48998923.3839586 0 .23025087.16850794.37621953.3839021.37621953.1559108 0 .26194144-.05937038.3390495-.1286829l.04937175.10377106h.25024813m-.32447522-.28465018c-.03942962.03491046-.10665203.07428358-.2104231.07428358-.12371182 0-.19082125-.06660102-.19082125-.16319793 0-.09925191.0720805-.15365122.23301885-.15867878l.1682255-.00497107z"/>
  <path fill="#c7254e" d="M20.45369274 13.01654392l-.07925466-.19313733c-.04716866.02225683-.12416374.05439931-.1986168.05439931-.07654316 0-.11094522-.0421411-.11094522-.13371045v-.59923977h.27685465l.08659828-.22302023h-.36350942v-.35853835l-.29747329.08885786v.269624h-.2076551v.22302023h.2076551v.69854817c0 .15822686.08157073.27465156.30961852.27465156.11614224 0 .2648224-.02943099.37672794-.101455"/>
  <path fill="#c7254e" fill-rule="evenodd" d="M21.7528929 12.50378945c0-.17811114-.0544558-.33181885-.1559108-.44061747-.10433595-.10653905-.25024812-.16862092-.43067533-.16862092-.17093698 0-.31227351.06213836-.41615756.16596592-.10925054.11151011-.170824.2701324-.170824.4532711 0 .18856169.06394602.34904813.18087912.45824218.10151149.09382892.24019301.14596866.40339095.14596866.17585156 0 .31961714-.06208187.4233882-.16862092.10919405-.10879862.16590943-.266969.16590943-.44558855m-.30470393.00225958c0 .22076065-.09422436.38169901-.27956614.38169901-.18087913 0-.28696626-.15365122-.28696626-.381699 0-.21759725.09151286-.37621955.27917072-.37621955.1836471 0 .28736168.15139165.28736168.37621954z"/>
</svg>
