<?xml version="1.0" encoding="UTF-8" standalone="no"?>
<svg xmlns="http://www.w3.org/2000/svg" xmlns:xlink="http://www.w3.org/1999/xlink" width="544.51855" height="247.834" version="1" viewBox="-.463 -.882 544.51855 247.834">
  <defs>
    <path id="a" d="M0 .002v247.834h582.869V.002"/>
    <clipPath id="b">
      <use width="584" height="249" xlink:href="#a"/>
    </clipPath>
  </defs>
  <path d="M135.894 16.453C158.619 8.18 181.151 2.747 202.448.011c.762-.096.955.521.168.755-12.903 4.148-26.031 9.276-39.143 15.382C75.413 57.201 21.585 126.981 42.529 171.877c11.748 25.165 44.567 37.386 86.8 35.981.803-.016.834.675.064.778-62.117 7.118-113.281-8.874-126.288-44.607C-14.581 115.45 45.169 49.473 135.894 16.453" clip-path="url(#b)" transform="translate(-.46544058 -.884)"/>
  <path d="M270.71156 15.143c21.585 7.855 26.97 29.289 4.606 59.597-.409.554-.986.369-.795-.241 6.284-16.899.354-36.535-22.171-42.714-36.832-10.103-97.93 9.798-142.401 40.54-.61.417-1.124.056-.619-.465 59.999-54.293 133.904-66.715 161.38-56.717"/>
  <path fill="none" stroke="#000" stroke-miterlimit="3.86400008" stroke-width="2" d="M142.93056 208.155h383.559"/>
  <path d="M142.05556 161.492c0-16.778-22.854-14.203-22.854-21.931 0-2.881 2.681-4.212 6.901-4.212 5.256 0 9.677 1.548 13.794 3.186v-10.296c-4.012-1.541-8.963-2.472-14.203-2.472-11.74 0-18.432 5.979-18.432 14.413 0 16.578 22.444 13.28 22.444 22.035 0 3.29-3.298 5.151-8.345 5.151-4.831 0-9.461-1.861-13.072-4.325l-4.004 9.052c4.004 2.479 9.982 4.534 18.006 4.534 10.505 0 19.765-4.221 19.765-15.135"/>
  <path fill-rule="evenodd" d="M199.47856 151.101c0-7.423-2.271-13.794-6.492-18.328-4.325-4.421-10.399-7.006-17.918-7.006-7.094 0-12.968 2.584-17.285 6.901-4.534 4.638-7.109 11.218-7.109 18.833 0 7.832 2.68 14.523 7.519 19.051 4.213 3.907 9.982 6.074 16.779 6.074 7.302 0 13.28-2.577 17.598-7.006 4.533-4.524 6.908-11.113 6.908-18.519m-12.662.097c0 9.164-3.924 15.856-11.636 15.856-7.519 0-11.94-6.388-11.94-15.856 0-9.061 3.804-15.641 11.628-15.641 7.614 0 11.948 6.276 11.948 15.641z"/>
  <path d="M253.69156 175.599V143.27c0-13.072-7.928-17.502-15.342-17.502-6.588 0-11.828 2.472-17.084 6.388l-1.34-5.255h-10.496V175.6h12.349v-34.079c3.812-2.88 8.024-5.144 12.358-5.144 6.275 0 7.206 5.554 7.206 10.6V175.6h12.349"/>
  <path fill-rule="evenodd" d="M312.45356 151.101c0-7.423-2.271-13.794-6.483-18.328-4.333-4.421-10.408-7.006-17.927-7.006-7.093 0-12.967 2.584-17.284 6.901-4.526 4.638-7.11 11.218-7.11 18.833 0 7.832 2.68 14.523 7.519 19.051 4.221 3.907 9.982 6.074 16.778 6.074 7.312 0 13.28-2.577 17.598-7.006 4.542-4.524 6.909-11.113 6.909-18.519m-12.663.097c0 9.164-3.915 15.856-11.635 15.856-7.51 0-11.94-6.388-11.94-15.856 0-9.061 3.803-15.641 11.635-15.641 7.616 0 11.94 6.276 11.94 15.641zM367.59756 150.475c0-15.125-8.962-24.708-26.256-24.708-7.92 0-13.898 1.549-18.938 3.299v70.832h12.35v-24.403c2.168.715 4.743 1.133 7.207 1.133 14.821-.001 25.637-10.602 25.637-26.153m-12.871.626c0 9.469-4.935 15.744-13.594 15.744-2.567 0-4.524-.506-6.379-1.228V136.68c1.653-.409 3.291-.714 5.666-.714 8.032.001 14.307 4.84 14.307 15.135z"/>
  <path d="M409.67856 127.83c-1.854-1.34-4.534-2.063-7.005-2.063-4.527 0-8.33 1.862-13.282 6.292l-1.435-5.16h-10.401v48.699h12.358V141.11c3.708-3.186 6.388-4.325 9.469-4.325 1.444 0 3.604.313 5.657 1.549l4.639-10.504"/>
  <path fill-rule="evenodd" d="M456.39656 154.495v-3.603c0-15.135-8.651-25.125-21.826-25.125-13.899 0-22.132 11.54-22.132 25.43 0 13.079 7.206 25.43 24.185 25.43 5.771 0 12.254-1.549 17.71-5.353l-2.983-7.929c-4.221 2.271-8.034 3.402-12.663 3.402-7.52 0-13.48-5.047-13.697-12.253h31.406m-12.768-8.753h-18.945c0-5.352 3.612-10.704 9.573-10.704 6.284-.001 9.163 5.455 9.372 10.704z"/>
  <path d="M500.32856 161.492c0-16.778-22.845-14.203-22.845-21.931 0-2.881 2.672-4.212 6.893-4.212 5.248 0 9.678 1.548 13.795 3.186v-10.296c-4.021-1.541-8.957-2.472-14.204-2.472-11.739 0-18.424 5.979-18.424 14.413 0 16.578 22.436 13.28 22.436 22.035 0 3.29-3.289 5.151-8.336 5.151-4.839 0-9.479-1.861-13.072-4.325l-4.021 9.052c4.021 2.479 9.983 4.534 18.023 4.534 10.496 0 19.755-4.221 19.755-15.135M544.05556 161.492c0-16.778-22.862-14.203-22.862-21.931 0-2.881 2.68-4.212 6.9-4.212 5.256 0 9.686 1.548 13.803 3.186v-10.296c-4.021-1.541-8.955-2.472-14.21-2.472-11.733 0-18.434 5.979-18.434 14.413 0 16.578 22.445 13.28 22.445 22.035 0 3.29-3.299 5.151-8.33 5.151-4.84 0-9.477-1.861-13.081-4.325l-4.012 9.052c4.012 2.479 9.983 4.534 18.008 4.534 10.503 0 19.773-4.221 19.773-15.135"/>
  <path fill-rule="evenodd" d="M292.49656 246.511c-.305-.963-.393-2.495-.393-5.473v-8.201c0-5.433-3.113-7.543-8.241-7.543-2.761 0-5.352.442-8.113 2.288l1.709 3.281c1.317-.786 3.074-1.532 5.225-1.532 2.318 0 4.076.963 4.076 3.506v.522l-3.684.136c-5.304.177-8.682 2.496-8.682 6.797 0 4.076 2.985 6.66 6.796 6.66 2.76 0 4.646-1.051 6.01-2.278l.867 1.837h4.43m-5.736-5.039c-.698.618-1.885 1.315-3.723 1.315-2.199 0-3.379-1.179-3.379-2.889 0-1.757 1.269-2.72 4.117-2.809l2.985-.088z"/>
  <path d="M310.94556 226.169c-.786-.562-1.926-.875-2.978-.875-1.934 0-3.562.795-5.655 2.681l-.619-2.199h-4.43v20.735h5.265v-14.676c1.572-1.364 2.719-1.846 4.028-1.846.616 0 1.541.128 2.407.649l1.982-4.469M332.19455942 225.776h-5.215l-5.258 14.123h-.095l-5.169-14.123h-5.255l8.506 20.872h3.811l8.675-20.872"/>
  <path fill-rule="evenodd" d="M351.17156 246.511c-.306-.963-.4-2.495-.4-5.473v-8.201c0-5.433-3.106-7.543-8.242-7.543-2.76 0-5.335.442-8.104 2.288l1.709 3.281c1.324-.786 3.072-1.532 5.215-1.532 2.328 0 4.078.963 4.078 3.506v.522l-3.684.136c-5.296.177-8.674 2.496-8.674 6.797 0 4.076 2.983 6.66 6.796 6.66 2.76 0 4.637-1.051 6.002-2.278l.874 1.837h4.43m-5.744-5.039c-.698.618-1.888 1.315-3.725 1.315-2.19 0-3.378-1.179-3.378-2.889 0-1.757 1.276-2.72 4.125-2.809l2.978-.088z"/>
  <path d="M370.01256 245.156l-1.403-3.419c-.835.394-2.198.963-3.516.963-1.355 0-1.964-.746-1.964-2.367v-10.608h4.901l1.533-3.948h-6.435v-6.347l-5.266 1.573v4.773h-3.676v3.948h3.676v12.366c0 2.801 1.444 4.862 5.481 4.862 2.056 0 4.688-.521 6.669-1.796"/>
  <path fill-rule="evenodd" d="M393.01156 236.079c0-3.153-.964-5.874-2.76-7.8-1.847-1.886-4.43-2.985-7.624-2.985-3.026 0-5.528 1.1-7.367 2.938-1.934 1.974-3.024 4.782-3.024 8.024 0 3.338 1.132 6.179 3.202 8.112 1.797 1.661 4.252 2.584 7.141 2.584 3.113 0 5.658-1.099 7.495-2.985 1.933-1.926 2.937-4.726 2.937-7.888m-5.394.04c0 3.908-1.668 6.757-4.949 6.757-3.202 0-5.08-2.72-5.08-6.757 0-3.852 1.62-6.66 4.942-6.66 3.251 0 5.087 2.68 5.087 6.66z"/>
</svg>
