<?xml version="1.0" encoding="UTF-8" standalone="no"?>
<svg xmlns="http://www.w3.org/2000/svg" width="55.112652" height="14">
  <path d="M41.690141 0l-2.549274.80282v2.40845h-1.493003V5.3662h1.493003v5.53521c0 1.59662.823662 2.77465 2.788688 2.77465h1.802816v-2.15493h-.774625c-.90871 0-1.267605-.4355-1.267605-1.42254V5.3662h2.352135V3.21127h-2.352135zm8.380304 2.88732c-2.726761 0-5.042299 2.04226-5.042299 5.61972 0 3.08507 1.873262 5.49296 5.028192 5.49296 3.10143 0 5.056315-2.41408 5.056315-5.57746 0-3.55606-2.230986-5.53522-5.042208-5.53522zm-45.4788958.22536c-1.5475834 0-3.352113.0986-3.352113.0986v1.98591s1.9278879-.0986 2.8309635-.0986c1.0625803 0 1.9437069.31718 1.9437069 1.57747v.23943l-1.816924.0563C1.6247887 7.06084 0 8.2969 0 10.46479c0 2.05634 1.4315263 3.42253 3.2816675 3.42253 1.339178 0 2.2558202-.52169 2.9155152-1.14084l.2112905.92958h2.3661975c-.1487328-.48733-.1972284-1.27043-.1972284-2.77465V6.84507c0-2.7431-1.4991329-3.73239-3.9858931-3.73239zm27.4647888 0c-1.547042 0-3.338006.0986-3.338006.0986v1.98591s1.927301-.0986 2.830963-.0986c1.061995 0 1.943662.31718 1.943662 1.57747v.23943l-1.816924.0563c-2.572349.089-4.211245 1.32507-4.211245 3.49296 0 2.05634 1.446761 3.42253 3.295775 3.42253 1.339177 0 2.256361-.52169 2.915515-1.14084l.211246.92958h2.35209c-.148733-.48733-.183076-1.27043-.183076-2.77465V6.84503c0-2.7431-1.51324-3.73239-4-3.73239zm-21.295774.0986v10.46479h2.577487V6.39438c.593758-.5831 1.319977-.69014 1.915492-.69014.202817 0 .450119.0248.718288.11267V3.21128c-.95662 0-1.752699.13408-2.760563 1.09859l-.267584-1.09859zm6.211244 0l4.098614 10.46479h1.943662l4.183122-10.46479H24.56338l-2.422535 6.78873-2.338028-6.78873zm33.056361 1.76056c1.571831 0 2.464811 1.45183 2.464811 3.46479 0 1.96845-.800046 3.52113-2.394412 3.52113-1.55263 0-2.464766-1.4862-2.464766-3.52113 0-1.94648.778006-3.46479 2.394367-3.46479zM6.0141066 8.74649v2.38028c-.3402815.30986-.9380506.66197-1.8310302.66197-1.0630766 0-1.6338027-.65859-1.6338027-1.52112 0-.88451.6180504-1.43719 2.0000443-1.47888l1.4647886-.0422zm27.4788504 0v2.38028c-.340281.30986-.952653.66197-1.845047.66197-1.063122 0-1.633803-.65859-1.633803-1.52112 0-.88451.618006-1.43719 1.999954-1.47888l1.478896-.0422z"/>
</svg>
