<svg xmlns="http://www.w3.org/2000/svg" width="15.072" height="14"><path d="M7.527 0C5.732 0 4.312.21 3.262.633A4.827 4.827 0 0 0 .879 2.697C.294 3.705 0 5.152 0 7.037c0 1.836.294 3.258.879 4.266a4.822 4.822 0 0 0 2.394 2.064C4.32 13.79 5.737 14 7.527 14c1.818 0 3.247-.21 4.29-.633a4.887 4.887 0 0 0 2.394-2.064c.574-.985.861-2.406.861-4.266 0-1.912-.287-3.359-.861-4.34A4.886 4.886 0 0 0 11.816.633C10.774.21 9.344 0 7.527 0zM3.924 3.809c.628 0 1.063.281 1.306.843L7.05 9.045c.076.182.113.358.113.53 0 .25-.078.5-.238.747-.263.422-.651.633-1.164.633-.612 0-1.038-.283-1.278-.85L2.676 5.721a1.55 1.55 0 0 1-.104-.537 1.32 1.32 0 0 1 .27-.788c.27-.392.63-.587 1.082-.587zm7.236 0c.64 0 1.073.281 1.3.843l.417.994c.076.18.113.36.113.542 0 .259-.074.517-.226.775-.27.452-.655.68-1.149.68-.612 0-1.043-.283-1.293-.85l-.398-1.072a1.438 1.438 0 0 1-.115-.553 1.3 1.3 0 0 1 .255-.772c.27-.392.636-.587 1.096-.587zm-3.582.002c.616 0 1.048.28 1.295.841l1.797 4.393c.076.182.113.364.113.547a1.4 1.4 0 0 1-.217.73c-.266.422-.653.633-1.162.633-.605 0-1.025-.283-1.265-.85l-1.82-4.384a1.446 1.446 0 0 1-.116-.55c0-.276.092-.535.27-.775.278-.392.645-.585 1.105-.585z"/></svg>