<svg xmlns="http://www.w3.org/2000/svg" xml:space="preserve" width="24.72122" height="14.000001" viewBox="0 0 6.540823 3.704167">
  <g style="font-size:8.58174px;-inkscape-font-specification:sans-serif;fill:#000;fill-opacity:1;stroke-width:.257452">
    <path d="M66.240113 146.39941h-4.805775v1.13279h1.733512v5.5438h1.338751v-5.5438h1.733512zm4.677055 0h-4.153562v6.67659h4.316615v-1.13279h-2.977864v-1.68202h2.334234v-1.13279h-2.334234v-1.5962h2.814811zm4.865851 4.41101c-.128726.68654-.446251 1.31301-1.244353 1.31301-1.149953 0-1.38166-1.52755-1.38166-2.38572 0-.85818.231707-2.38573 1.38166-2.38573.806684 0 1.115627.62647 1.244353 1.32159l1.270097-.17163c-.223125-1.41599-1.141371-2.20551-2.51445-2.20551-1.905146 0-2.754738 1.75926-2.754738 3.44128 0 1.68202.849592 3.44127 2.754738 3.44127 1.390242 0 2.308488-.83242 2.51445-2.2055zm3.406945-1.80216v-2.60885h-1.338752v6.67659h1.338752v-2.93495h2.205507v2.93495h1.338752v-6.67659h-1.338752v2.60885zm4.471088-2.60885v6.67659h1.338751v-5.36358h.01716l2.523031 5.36358h1.433151v-6.67659h-1.338752v4.40243h-.01716l-1.999546-4.40243zm8.864932-.10298c-1.905146 0-2.754738 1.75926-2.754738 3.44128 0 1.68202.849592 3.44127 2.754738 3.44127 1.905147 0 2.754739-1.75925 2.754739-3.44127 0-1.68202-.849592-3.44128-2.754739-3.44128zm0 1.05555c1.149954 0 1.381661 1.52755 1.381661 2.38573 0 .85817-.231707 2.38572-1.381661 2.38572-1.149953 0-1.38166-1.52755-1.38166-2.38572 0-.85818.231707-2.38573 1.38166-2.38573zm4.883008-.95257h-1.338751v6.67659h4.119239v-1.13279h-2.780488zm6.067278-.10298c-1.90514 0-2.75473 1.75926-2.75473 3.44128 0 1.68202.84959 3.44127 2.75473 3.44127 1.90515 0 2.75474-1.75925 2.75474-3.44127 0-1.68202-.84959-3.44128-2.75474-3.44128zm0 1.05555c1.14996 0 1.38167 1.52755 1.38167 2.38573 0 .85817-.23171 2.38572-1.38167 2.38572-1.14995 0-1.38166-1.52755-1.38166-2.38572 0-.85818.23171-2.38573 1.38166-2.38573zm7.34598 3.42412c.0515.75519-.13731 1.34733-1.1757 1.34733-1.14996 0-1.38166-1.52755-1.38166-2.38572 0-.85818.2317-2.38573 1.38166-2.38573.83243 0 1.14995.54923 1.26151 1.19287l1.20145-.18022c-.13731-1.2701-1.14996-2.0682-2.46296-2.0682-1.90515 0-2.75474 1.75926-2.75474 3.44128 0 1.68202.84959 3.44127 2.75474 3.44127.44625 0 1.02122-.15447 1.39882-.57497l.12873.47199h.93541v-3.35546h-2.4458v1.05556zm3.49276 2.2999v-6.67659h-1.33875v6.67659zm5.08039-6.67659h-4.15356v6.67659h4.31662v-1.13279h-2.97787v-1.68202h2.33424v-1.13279h-2.33424v-1.5962h2.81481zm5.32069 1.75068c-.11157-1.12421-.96116-1.85366-2.09395-1.85366-1.15853 0-2.17118.85817-2.17118 2.05962 0 2.27416 3.14092 1.5018 3.14092 2.84055 0 .57498-.43767.8496-.96116.8496-.63505 0-.92682-.42051-1.04697-.9869l-1.33875.19738c.20596 1.30442 1.12421 1.9223 2.3943 1.9223 1.6477 0 2.26558-1.2186 2.26558-2.03387 0-2.4887-3.14091-1.63053-3.14091-2.94353 0-.45484.37759-.77236.81526-.77236.54065 0 .7981.47199.92683.93541z" aria-label="TECHNOLOGIES" style="font-family:&quot;News Gothic Std&quot;;-inkscape-font-specification:&quot;News Gothic Std&quot;;fill:#000;fill-opacity:1" transform="matrix(.067055 0 0 .070821 -1.834704 -9.12498)"/>
  </g>
  <g style="font-size:8.58174px;-inkscape-font-specification:sans-serif;fill:#000;fill-opacity:1;stroke-width:.257452">
    <path d="M65.107322 155.12504h-1.802166l-1.870819 6.6766h1.364497l.437668-1.67344h1.973801l.437668 1.67344h1.364497zm-.163053 3.9476h-1.441733l.703703-2.79765h.03433zm5.792681-3.9476v4.18789c0 1.11563-.334688 1.4589-1.012645 1.4589-.677958 0-1.012646-.34327-1.012646-1.4589v-4.18789h-1.338751v4.61698c0 1.37308.943991 2.1626 2.351397 2.1626 1.407405 0 2.351397-.78952 2.351397-2.1626v-4.61698zm6.547863 1.75068c-.111563-1.12421-.961155-1.85366-2.093945-1.85366-1.158535 0-2.17118.85817-2.17118 2.05962 0 2.27416 3.140917 1.5018 3.140917 2.84055 0 .57498-.437669.8496-.961155.8496-.635049 0-.926828-.42051-1.046973-.9869l-1.338751.19738c.205962 1.30442 1.124208 1.92231 2.394305 1.92231 1.647695 0 2.26558-1.21861 2.26558-2.03388 0-2.4887-3.140917-1.63053-3.140917-2.94353 0-.45484.377597-.77236.815265-.77236.54065 0 .798102.472.926828.93541zm5.380755-1.75068h-4.805774v1.13279h1.733511v5.54381h1.338752v-5.54381h1.733511zm.523493 0v6.6766h1.338751v-2.77191h1.021228l1.201443 2.77191h1.407406l-1.33017-3.04652c.677957-.27462 1.13279-.95258 1.13279-1.68202 0-.8496-.600722-1.94806-2.136854-1.94806zm1.338751 2.7719v-1.63911h.497741c.660794 0 1.561877-.0772 1.561877.84101 0 .83243-.892501.7981-1.476059.7981zm7.457537-2.7719h-1.802166l-1.870819 6.6766h1.364496l.437669-1.67344h1.973801l.437668 1.67344h1.364497zm-.163053 3.9476h-1.441733l.703703-2.79765h.03433zm3.801715-3.9476H94.28526v6.6766h4.119235v-1.13279h-2.780484zm4.780029 6.6766v-6.6766h-1.338755v6.6766zm4.06774-6.6766h-1.80216l-1.87082 6.6766h1.36449l.43767-1.67344h1.9738l.43767 1.67344h1.3645zm-.16305 3.9476H102.867l.7037-2.79765h.0343z" aria-label="AUSTRALIA" style="font-family:&quot;News Gothic Std&quot;;-inkscape-font-specification:&quot;News Gothic Std&quot;;fill:#000;fill-opacity:1" transform="matrix(.067055 0 0 .070821 -1.834704 -9.12498)"/>
  </g>
  <g style="font-size:8.58174px;-inkscape-font-specification:sans-serif;fill:#000;fill-opacity:1;stroke-width:.257452">
    <path d="M65.107322 137.67379h-1.802166l-1.870819 6.6766h1.364497l.437668-1.67344h1.973801l.437668 1.67344h1.364497zm-.163053 3.9476h-1.441733l.703703-2.79764h.03433zm5.792681-3.9476v4.18789c0 1.11563-.334688 1.4589-1.012645 1.4589-.677958 0-1.012646-.34327-1.012646-1.4589v-4.18789h-1.338751v4.61698c0 1.37308.943991 2.1626 2.351397 2.1626 1.407405 0 2.351397-.78952 2.351397-2.1626v-4.61698zm2.222665 0v6.6766h2.093945c1.990964 0 2.977864-1.4589 2.977864-3.3383 0-1.89656-.901083-3.3383-3.441278-3.3383zm1.338752 5.54381v-4.41102h.506323c1.252934 0 1.853656.65222 1.853656 2.05104 0 1.6906-.643631 2.35998-1.707767 2.35998zm5.86991 1.13279v-6.6766h-1.338751v6.6766zm3.552841-6.77958c-1.905147 0-2.754739 1.75926-2.754739 3.44128 0 1.68202.849592 3.44128 2.754739 3.44128 1.905146 0 2.754738-1.75926 2.754738-3.44128 0-1.68202-.849592-3.44128-2.754738-3.44128zm0 1.05556c1.149953 0 1.38166 1.52755 1.38166 2.38572 0 .85817-.231707 2.38572-1.38166 2.38572-1.149954 0-1.381661-1.52755-1.381661-2.38572 0-.85817.231707-2.38572 1.381661-2.38572z" aria-label="AUDIO" style="font-family:&quot;News Gothic Std&quot;;-inkscape-font-specification:&quot;News Gothic Std&quot;;fill:#000;fill-opacity:1" transform="matrix(.067055 0 0 .070821 -1.834704 -9.12498)"/>
  </g>
  <path d="M28.753764 132.42598v.65569c-1.259118.38915-2.075038 1.06699-1.492093 2.72872-1.41553-1.27984-.279439-2.97912 1.492093-3.38441z" style="fill:#000;fill-opacity:1;stroke-width:.0182331" transform="translate(-26.623656 -132.41396)"/>
  <path d="M28.753764 133.31211v.54749c-1.097713.44291-1.257002.99049-1.003829 2.09609-.766114-.74779-.675944-2.21671 1.003829-2.64358z" style="fill:#000;fill-opacity:1;stroke-width:.0182331" transform="translate(-26.623656 -132.41396)"/>
  <path d="M28.753764 134.11456v.65348c-.690389.32291-.55569 1.02442-.518438 1.35009-.438913-.49185-.573233-1.62171.518438-2.00357z" style="fill:#000;fill-opacity:1;stroke-width:.0182331" transform="translate(-26.623656 -132.41396)"/>
  <g style="font-size:8.58174px;-inkscape-font-specification:sans-serif;fill:#000;fill-opacity:1;stroke-width:.257452">
    <path d="M61.961156 128.94816v6.6766H64.0551c1.990964 0 2.977864-1.4589 2.977864-3.3383 0-1.89657-.901082-3.3383-3.441278-3.3383zm1.338751 5.54381v-4.41102h.506323c1.252934 0 1.853656.65221 1.853656 2.05104 0 1.6906-.643631 2.35998-1.707767 2.35998zm5.869911 1.13279v-6.6766h-1.338752v6.6766zm4.728538-2.29991c.05149.75519-.137308 1.34733-1.175698 1.34733-1.149954 0-1.381661-1.52755-1.381661-2.38572 0-.85818.231707-2.38572 1.381661-2.38572.832429 0 1.149953.54923 1.261516 1.19286l1.201443-.18022c-.137308-1.2701-1.149953-2.0682-2.462959-2.0682-1.905147 0-2.754739 1.75926-2.754739 3.44128 0 1.68202.849592 3.44128 2.754739 3.44128.44625 0 1.021227-.15447 1.398823-.57498l.128726.472h.93541v-3.35546h-2.445796v1.05555zm3.492771 2.29991v-6.6766h-1.338751v6.6766zm5.337841-6.6766h-4.805774v1.13279h1.733511v5.54381h1.338752v-5.54381h1.733511zm3.14951 0h-1.802165l-1.87082 6.6766h1.364497l.437669-1.67344h1.9738l.437669 1.67344h1.364496zm-.163053 3.9476h-1.441732l.703702-2.79764h.03433zm3.801718-3.9476h-1.338752v6.6766h4.119236v-1.13279h-2.780484z" aria-label="DIGITAL" style="font-family:&quot;News Gothic Std&quot;;-inkscape-font-specification:&quot;News Gothic Std&quot;;fill:#000;fill-opacity:1" transform="matrix(.067055 0 0 .070821 -1.834704 -9.12498)"/>
  </g>
</svg>
