<?xml version="1.0" encoding="UTF-8" standalone="no"?>
<svg xmlns="http://www.w3.org/2000/svg" width="27.588474" height="14">
  <g transform="matrix(.10076 0 0 .10076 -9.4969391 -2.0213611)">
    <path d="M97 107v52h6v-18c2 2 5 3 8 3h29c7 0 11-5 11-12v-13c0-7-4-12-11-12h-29c-3 0-6 1-8 3v-3zm17 5h22c6 0 9 2 9 7v13c0 5-3 7-9 7h-22c-5 0-11-3-11-7v-13c0-4 6-7 11-7zM155 142v-35h6v3c5-4 8-5 13-5h11c9 0 14 5 14 9v8h-5v-5c0-4-4-7-11-7h-7c-9 0-11 3-15 7v25zM214 105c-7 0-13 5-13 12v10c0 9 5 15 13 15h28c8 0 13-6 13-11h-6c0 3-3 6-7 6h-26c-8 0-9-7-9-13h46c2-1 2-3 2-5 0-8-6-14-13-14zm4 5h21c7 0 10 4 10 9h-42c0-6 3-9 11-9zM270 110h30c4 0 4 3 4 5h6v-3c0-4-3-7-11-7h-29c-10 0-12.94686 3.81832-13 10 0 9 5 11 13 11h30c5 0 5 3 5 6s0 5-5 5h-31c-5 0-6-3-6-7h-6c.048 5.18906 2 12 8 12h35c11 0 11-6 11-10s0-11-10-11h-32c-4 0-6-2-6-6s3-5 7-5zM326 110h30c4 0 4 3 4 5h6v-3c0-4-3-7-11-7h-29c-10 0-12.94686 3.81832-13 10 0 9 5 11 13 11h30c5 0 5 3 5 6s0 5-5 5h-31c-5 0-6-3-6-7h-6c.048 5.18906 2 12 8 12h35c11 0 11-6 11-10s0-11-10-11h-32c-4 0-6-2-6-6s3-5 7-5z"/>
    <path d="M209.53711 35.527344c-18.90009 0-34.25977 15.359676-34.25977 34.259765 0 18.90009 15.35968 34.257811 34.25977 34.257811 18.90009 0 34.25781-15.357721 34.25781-34.257811 0-18.900089-15.35772-34.259765-34.25781-34.259765zm0 3.5c17.00855 0 30.75781 13.751216 30.75781 30.759765 0 17.008549-13.74926 30.757811-30.75781 30.757811s-30.75977-13.749262-30.75977-30.757811c0-17.008549 13.75122-30.759765 30.75977-30.759765z" color="#000" font-family="sans-serif" font-weight="400" overflow="visible" style="line-height:normal;font-variant-ligatures:normal;font-variant-position:normal;font-variant-caps:normal;font-variant-numeric:normal;font-variant-alternates:normal;font-feature-settings:normal;text-indent:0;text-align:start;text-decoration-line:none;text-decoration-style:solid;text-decoration-color:#000;text-transform:none;text-orientation:mixed;shape-padding:0;isolation:auto;mix-blend-mode:normal" white-space="normal"/>
    <path d="M209.53711 63.052734c-3.69848 0-6.73438 3.035894-6.73438 6.734375 0 3.698482 3.0359 6.734375 6.73438 6.734375s6.73437-3.035893 6.73437-6.734375c0-3.698481-3.03589-6.734375-6.73437-6.734375zm0 3.5c1.80694 0 3.23437 1.427434 3.23437 3.234375s-1.42743 3.234375-3.23437 3.234375c-1.80694 0-3.23438-1.427434-3.23438-3.234375s1.42744-3.234375 3.23438-3.234375zM333.78711 33.527344c-18.90009 0-34.25977 15.359676-34.25977 34.259765 0 18.90009 15.35968 34.257811 34.25977 34.257811 18.90009 0 34.25781-15.357721 34.25781-34.257811 0-18.900089-15.35772-34.259765-34.25781-34.259765zm0 3.5c17.00855 0 30.75781 13.751216 30.75781 30.759765 0 17.008549-13.74926 30.757813-30.75781 30.757813s-30.75977-13.749264-30.75977-30.757813 13.75122-30.759765 30.75977-30.759765z" color="#000" font-family="sans-serif" font-weight="400" overflow="visible" style="line-height:normal;font-variant-ligatures:normal;font-variant-position:normal;font-variant-caps:normal;font-variant-numeric:normal;font-variant-alternates:normal;font-feature-settings:normal;text-indent:0;text-align:start;text-decoration-line:none;text-decoration-style:solid;text-decoration-color:#000;text-transform:none;text-orientation:mixed;shape-padding:0;isolation:auto;mix-blend-mode:normal" white-space="normal"/>
    <path d="M333.78711 61.052734c-3.69848 0-6.73438 3.035894-6.73438 6.734375 0 3.698482 3.0359 6.734375 6.73438 6.734375s6.73437-3.035893 6.73437-6.734375c0-3.698481-3.03589-6.734375-6.73437-6.734375zm0 3.5c1.80694 0 3.23437 1.427434 3.23437 3.234375s-1.42743 3.234375-3.23437 3.234375c-1.80694 0-3.23438-1.427434-3.23438-3.234375s1.42744-3.234375 3.23438-3.234375zM272 35.25c-8.84314 0-17.16655 2.580121-23.38086 6.943359C242.40483 46.556598 238.25 52.826923 238.25 60v41.75h31.5V69c0-.708333.18658-1.290303.46875-1.628906.28217-.338603.67014-.621094 1.78125-.621094s1.49908.282491 1.78125.621094c.28217.338603.46875.920573.46875 1.628906v32.75h31.5V60c0-7.173077-4.15483-13.443402-10.36914-17.806641C289.16655 37.830121 280.84314 35.25 272 35.25zm0 3.5c8.15686 0 15.83345 2.419879 21.36914 6.306641C298.90483 48.943402 302.25 54.173077 302.25 60v38.25h-24.5V69c0-1.291667-.31342-2.709697-1.28125-3.871094S273.88889 63.25 272 63.25s-3.50092.717509-4.46875 1.878906C266.56342 66.290303 266.25 67.708333 266.25 69v29.25h-24.5V60c0-5.826923 3.34517-11.056598 8.88086-14.943359C256.16655 41.169879 263.84314 38.75 272 38.75z" color="#000" font-family="sans-serif" font-weight="400" overflow="visible" style="line-height:normal;font-variant-ligatures:normal;font-variant-position:normal;font-variant-caps:normal;font-variant-numeric:normal;font-variant-alternates:normal;font-feature-settings:normal;text-indent:0;text-align:start;text-decoration-line:none;text-decoration-style:solid;text-decoration-color:#000;text-transform:none;text-orientation:mixed;shape-padding:0;isolation:auto;mix-blend-mode:normal" white-space="normal"/>
    <path d="M183.30859 20.060547c-1.83658-.0021-3.57896.05791-5.23242.177734-9.92247.719095-16.65277 3.601839-21.45117 8.304688-6.39786 6.270465-9.16439 15.336046-12.30273 25.960937-1.98741 6.728369-3.78485 10.896523-6.33008 13.427735-2.54523 2.531211-6.01975 3.763866-12.15235 4.326171-6.35277.582493-14.63997-.998394-29.722652-2.003906l-1.867188-.125v30.515624l1.640625.10156c15.878075.99238 32.730415 3.79733 46.974605.93946 7.1221-1.42894 13.62898-4.333819 18.81836-9.6543 5.18938-5.320481 9.00355-12.982883 11.03516-23.705078 1.66924-8.809723 4.60693-14.049888 8.61133-17.166016.9242-.719188 1.9214-1.328568 2.98633-1.847656a32.509171 32.509171 0 0 1 5.48047-5.326172c-4.01009.685088-7.5781 2.047159-10.61719 4.41211-4.8579 3.780293-8.13545 9.970863-9.89844 19.27539-1.93971 10.23718-5.48577 17.179661-10.10352 21.914063-4.61774 4.734402-10.36492 7.334794-17 8.666015-12.81857 2.571834-28.82246.20081-44.42773-.873047V73.914062c13.5006 1.000659 21.618 2.450906 28.41016 1.828126 6.49029-.595102 11.00524-2.054635 14.29882-5.330079 3.29359-3.275444 5.18432-8.028413 7.21875-14.916015 3.12887-10.592792 5.86115-19.028012 11.39649-24.453125 4.1515-4.068835 9.99248-6.691711 19.29492-7.333985 3.10082-.214091 6.58528-.208904 10.52148.03711h.002l63.35742 3.90039v14.330078c1.1141-.630442 2.28105-1.21299 3.5-1.734374V24.353516l-66.64062-4.09961h-.002c-2.03146-.126926-3.96224-.191227-5.79883-.193359zm49.72461 27.277344a32.509171 32.509171 0 0 1 3.21485 3.982421c1.89281.214467 3.83546.410854 5.80078.595704.6219-1.17882 1.38033-2.306186 2.25-3.378907-3.88237-.340449-7.64262-.750398-11.26563-1.199218z" color="#000" font-family="sans-serif" font-weight="400" overflow="visible" style="line-height:normal;font-variant-ligatures:normal;font-variant-position:normal;font-variant-caps:normal;font-variant-numeric:normal;font-variant-alternates:normal;font-feature-settings:normal;text-indent:0;text-align:start;text-decoration-line:none;text-decoration-style:solid;text-decoration-color:#000;text-transform:none;text-orientation:mixed;shape-padding:0;isolation:auto;mix-blend-mode:normal" white-space="normal"/>
  </g>
</svg>
