<?xml version="1.0" encoding="UTF-8" standalone="no"?>
<svg xmlns="http://www.w3.org/2000/svg" xmlns:xlink="http://www.w3.org/1999/xlink" width="48.640625" height="14" version="1" viewBox="-.182 -.366 48.640625 14">
  <defs>
    <path id="a" d="M963.313 0H0v388.658h963.313z"/>
    <clipPath id="b">
      <use width="964" height="390" xlink:href="#a"/>
    </clipPath>
  </defs>
  <g fill="#be234a" transform="translate(-.00035938)">
    <path d="M-.18164062 10.501954v.126953H48.458984v-.126953z" color="#000" font-family="sans-serif" font-weight="400" overflow="visible" style="line-height:normal;font-variant-ligatures:normal;font-variant-position:normal;font-variant-caps:normal;font-variant-numeric:normal;font-variant-alternates:normal;font-feature-settings:normal;text-indent:0;text-align:start;text-decoration-line:none;text-decoration-style:solid;text-decoration-color:#000;text-transform:none;text-orientation:mixed;shape-padding:0;isolation:auto;mix-blend-mode:normal" white-space="normal"/>
    <g transform="matrix(.036 0 0 .036 6.9529903 -.35777001)">
      <path d="M295.707 371.381c0 5.434 0 9.902-.281 12.281-.227 1.641-.785 2.949-2.395 3.246-.43.082-.66.168-.66.43 0 .34.254.453.688.453h21.535c1.191 0 1.391-.32 1.625-1.473.281-1.367.738-5.035.738-5.484 0-.402 0-.852-.34-.852-.285 0-.398.227-.508.852-.398 2.32-1.078 3.449-2.547 4.07-1.469.621-3.469.793-5.434.793-5.547 0-7.668-.086-7.668-4.641V366.4c0-.227.113-.395.395-.395.965 0 7.668.113 9.199.277 2.207.23 2.715 1.195 2.941 1.984.223.734.223 1.301.223 1.867 0 .285.113.512.398.512.395 0 .395-.625.395-1.078 0-.395.117-2.488.23-3.621.172-1.867.449-2.832.449-3.172 0-.34-.109-.449-.277-.449-.23 0-.457.281-.852.734-.508.566-1.301.68-2.66.793-1.301.117-9.367.117-10.102.117-.285 0-.34-.172-.34-.57v-15.621c0-.395.113-.563.34-.563.625 0 7.891.055 8.855.168 3.055.34 3.625 1.02 4.016 1.926.285.676.34 1.637.34 2.035 0 .453.117.734.453.734.227 0 .34-.34.395-.625.117-.676.23-3.168.285-3.73.172-1.582.457-2.266.457-2.66 0-.285-.063-.508-.23-.508-.281 0-.281.191-1.086.348-.523.105-1.203.105-2.141.105h-19.066c-.5 0-.707.082-.707.355 0 .305.32.48.797.563 1.793.324 2.313 1.344 2.426 3.27.113 1.809.113 3.391.113 12.219v9.966M388.508 347.439l6.031.113c5.434.113 6.734 1.418 6.961 3.113l.059.617c.055.797.168.969.449.969.23 0 .398-.227.398-.734 0-.625.172-4.531.172-6.23 0-.34 0-.68-.285-.68-.453 0-1.98.57-5.605.57h-19.02c-.68 0-2.832-.113-4.473-.285-1.527-.113-2.09-.676-2.488-.676-.227 0-.449.73-.566 1.07-.113.453-1.242 5.32-1.242 5.891 0 .34.109.508.277.508.234 0 .402-.113.57-.566.172-.398.34-.793.961-1.754.906-1.359 2.262-1.754 5.773-1.813l7.273-.113v23.941c0 5.434 0 9.902-.281 12.281-.227 1.641-.492 2.996-2.516 3.316-.324.047-.559.172-.559.43 0 .27.234.383.582.383h10.273c.348 0 .586-.164.586-.453 0-.25-.223-.438-.621-.488-1.695-.246-2.258-1.547-2.426-3.188-.285-2.379-.285-6.848-.285-12.281v-23.941M460.957 361.416c0-8.828 0-10.41.117-12.219.109-1.98.766-3.152 2.723-3.336.301-.027.488-.176.488-.449 0-.27-.246-.402-.582-.402h-10.309c-.262 0-.523.125-.523.398 0 .254.25.434.582.477 1.402.172 2.523 1.387 2.637 3.313.113 1.809.113 3.391.113 12.219v9.965c0 5.434 0 9.902-.281 12.281-.23 1.641-.637 3.09-2.547 3.309-.234.023-.504.168-.504.434 0 .254.219.387.563.387h19.648c3 0 3.168-.227 3.563-1.527.453-1.645.848-5.039.848-5.66 0-.621-.055-.852-.34-.852-.34 0-.453.289-.508.742-.168 1.07-.73 2.492-1.473 3.395-1.355 1.637-3.512 1.727-6.512 1.727-4.414 0-5.551-.258-6.461-1.164-1.016-1.02-1.242-4.637-1.242-12.957v-10.081M495.66 388.658c7.355 0 13.438-4.469 13.438-12.066 0-4.215-1.488-8.605-10.199-14.047-5.594-3.488-8.551-6.105-8.551-10.07 0-3.773 2.914-6.473 6.73-6.473 4.84 0 7.555 2.445 8.34 6.391.09.445.141.727.48.715.281-.012.383-.406.352-1.309-.137-3.852.023-5.727.016-6.008-.007-.281-.129-.395-.582-.379-.449.016-.906-.023-1.988-.211-1.426-.289-3.793-1.047-5.945-1.047-7.113 0-11.109 4.207-11.109 10.227 0 5.141 3.035 8.613 10.027 13.16 5.117 3.328 8.32 6.563 8.32 11.008 0 4.227-2.805 7.973-8.16 7.973-4.859 0-8.453-2.199-9.234-6.145-.16-.793-.227-1.574-.246-2.09-.016-.449-.074-.617-.414-.605-.285.008-.391.297-.422.918-.027.91-.172 3.176-.074 6.008.051 1.527.246 1.758.922 2.121 1.565.832 4.573 1.929 8.299 1.929M563.777 345.373c-.027-.238-.316-.363-.871-.363-.613 0-.828.133-.934.363l-15.539 34.996-16.195-35c-.105-.219-.27-.359-.965-.359-.625 0-.836.098-.863.363l-4.063 36.762c-.234 2.141-.527 4.719-3.352 4.887-.352.023-.535.191-.535.41 0 .219.234.359.5.359h9.188c.234 0 .508-.125.508-.41 0-.242-.148-.41-.516-.457-2.5-.305-2.633-1.449-2.371-4.469l2.297-26.246h.227c.621 1.527 13.309 28.863 13.309 28.863.965 2.094 1.359 2.605 1.754 2.605.512 0 .746-.477 1.871-2.996l13.078-29.434h.172l2.461 26.531c.328 3.504-.34 4.586-2.043 5.066-.277.078-.66.184-.66.539 0 .336.285.406.813.406 1.836 0 8.609-.004 9.855-.004.465 0 .797-.098.797-.438 0-.328-.277-.418-.699-.512-2.758-.641-3.172-4.301-3.391-6.344l-3.833-35.118M631.211 352.9l27.48 34.258c.34.422.527.629 1.176.629.523 0 .621-.121.621-.625l.113-36.156c.012-3.426.477-4.945 2.801-5.195.316-.039.539-.184.539-.406 0-.25-.195-.395-.52-.395h-8.777c-.539 0-.742.152-.742.395 0 .277.164.426.609.527 2.219.496 2.668 1.844 2.754 5.523l.625 27.195-26.551-33.277c-.246-.313-.574-.363-1.48-.363-.945 0-1.254.094-1.254.363l-.059 34.102c-.008 5.215-.441 7.094-2.828 7.477-.352.059-.523.238-.523.461 0 .277.203.379.547.379h8.813c.512 0 .758-.113.758-.453 0-.227-.219-.359-.574-.449-2.305-.563-2.664-2.148-2.793-6.797l-.735-27.193M415.742 371.381c0 5.434 0 9.902-.281 12.281-.23 1.641-.789 2.949-2.395 3.246-.434.082-.66.168-.66.43 0 .34.25.453.684.453h21.539c1.188 0 1.391-.32 1.625-1.473.277-1.367.734-5.035.734-5.484 0-.402 0-.852-.34-.852-.281 0-.395.227-.508.852-.395 2.32-1.074 3.449-2.547 4.07-1.473.621-3.473.793-5.434.793-5.543 0-7.668-.086-7.668-4.641V366.4c0-.227.117-.395.402-.395.957 0 7.664.113 9.191.277 2.207.23 2.715 1.195 2.941 1.984.23.734.23 1.301.23 1.867 0 .285.109.512.391.512.398 0 .398-.625.398-1.078 0-.395.113-2.488.227-3.621.168-1.867.457-2.832.457-3.172 0-.34-.117-.449-.289-.449-.223 0-.453.281-.848.734-.508.566-1.301.68-2.656.793-1.305.117-9.363.117-10.105.117-.277 0-.34-.172-.34-.57v-15.621c0-.395.117-.563.34-.563.625 0 7.898.055 8.855.168 3.059.34 3.621 1.02 4.02 1.926.281.676.34 1.637.34 2.035 0 .453.113.734.453.734.23 0 .34-.34.398-.625.109-.676.223-3.168.281-3.73.168-1.582.449-2.266.449-2.66 0-.285-.055-.508-.223-.508-.285 0-.285.191-1.086.348-.527.105-1.207.105-2.141.105H413.11c-.5 0-.707.082-.707.355 0 .305.324.48.793.563 1.793.324 2.313 1.344 2.43 3.27.113 1.809.113 3.391.113 12.219v9.966M344.809 366.877l11.609 16.922c2.277 3.438 5.668 3.992 8.836 3.992h2.082c.359 0 .664-.105.664-.453 0-.305-.301-.43-.664-.504-1.789-.402-3.66-1.047-6.082-4.43l-11.238-15.66c6.168-1.75 9.414-6.203 9.414-10.906 0-4.465-1.898-6.699-3.91-8.34-2.859-2.336-6.789-2.488-10.355-2.488h-12.188c-.379 0-.715.078-.715.414 0 .277.293.414.816.512 1.871.355 2.32 1.336 2.43 3.262.113 1.809.113 3.391.113 12.219v9.965c0 5.434 0 9.902-.285 12.281-.223 1.641-.465 2.824-2.465 3.297-.438.105-.609.203-.609.438 0 .199.129.395.594.395h10.027c.301 0 .582-.141.582-.422 0-.305-.297-.426-.629-.492-1.777-.355-2.234-1.574-2.406-3.215-.281-2.379-.281-7.16-.281-12V347.84c0-.34.172-.566.453-.68.566-.172 2.387-.34 4.086-.34 6.055 0 9.789 3.746 9.789 8.902 0 8.199-6.258 9.926-9.227 10.07-.559.03-.801.562-.441 1.085"/>
      <path fill-rule="evenodd" d="M258.867 364.271c0 .406.313.625.621.641 2.098.121 4.434.695 6.25 1.695 4.637 2.563 6.355 6.848 6.145 11.434-.297 6.566-6.277 8.137-9.184 8.137-1.996 0-4.789.078-6.316-.656-1.758-.844-1.758-1.832-1.926-4.609-.055-.848-.055-7.891-.055-12.25v-21.359c0-.344.168-.512.68-.621.926-.207 3.852-.285 4.477-.285 6.523 0 9.141 3.977 9.141 8.027 0 5.949-3.316 8.691-9.211 9.219-.364.034-.622.217-.622.627m-8.996 7.11c0 5.434 0 10.098-.281 12.477-.227 1.645-.379 2.934-2.574 3.293-.238.039-.492.195-.492.434 0 .34.305.406.504.406h14.742c10.199 0 14.984-5.898 14.984-12.266 0-8.031-7.121-11.371-11.5-12.352 2.652-.727 8.141-3.371 8.141-9.426 0-4.809-3.641-9.133-13.215-9.133h-13.051c-.336 0-.605.078-.605.363 0 .32.313.457.625.516 1.828.355 2.5 1.383 2.613 3.309.109 1.809.109 3.586.109 12.414zM583.148 381.564c-1.02 2.828-2.25 5.043-4.277 5.344-.449.07-.715.184-.715.492 0 .297.266.391.715.391h8.961c.34 0 .527-.211.527-.398 0-.227-.254-.359-.516-.395-1.176-.148-2.211-.758-2.211-1.891 0-1.004.172-1.531.852-3.543l3.398-10.016c.109-.285.281-.453.566-.453h12.164c.285 0 .398.117.508.34l4.004 10.594c1.207 3.199.773 4.355-.824 4.949-.309.113-.566.203-.566.449 0 .281.219.363.547.363l11.063-.004c.398 0 .551-.113.551-.344 0-.281-.238-.387-.527-.453-2.586-.621-3.738-1.543-5.699-6.609l-13.523-35.008c-.105-.27-.297-.363-.902-.363s-.777.125-.867.363l-13.229 36.192m7.922-12.503c-.168 0-.281-.113-.168-.398l4.98-15.277c.277-.852.563-.852.852 0l5.371 15.277c.055.227.055.398-.223.398z"/>
      <path d="M681.34 352.9l27.484 34.258c.344.418.531.629 1.176.629.523 0 .621-.121.625-.625l.113-36.156c.012-3.426.473-4.945 2.797-5.195.316-.039.539-.184.539-.406 0-.25-.199-.395-.516-.395h-8.781c-.543 0-.746.152-.746.395 0 .277.164.426.617.527 2.215.496 2.664 1.844 2.75 5.523l.621 27.195-26.547-33.277c-.246-.313-.574-.363-1.48-.363-.945 0-1.25.094-1.25.363l-.059 34.102c-.008 5.215-.445 7.094-2.832 7.477-.352.059-.523.238-.523.461 0 .277.199.379.539.379h8.816c.516 0 .762-.113.762-.453 0-.227-.219-.359-.578-.449-2.301-.563-2.66-2.148-2.785-6.797l-.742-27.193"/>
    </g>
    <path fill-rule="evenodd" d="M34.599754 7.8448931v-.1198159c0-.7660948-.375216-1.2716041-1.021423-1.2716041-.630474 0-1.041945.5524206-1.041945 1.2611272 0 .6878977.369745 1.3183712 1.172346 1.3183712.286615 0 .604444-.09393.818082-.2553289l-.130221-.3074962c-.166799.098934-.385477.1719834-.59926.1719834-.495176 0-.776319-.3595918-.776319-.7972729h1.57874m-.489812-.3595917h-1.094148c0-.3544073.213494-.6565394.557605-.6565394.359339 0 .536543.3387104.536543.6565394zM39.451292 5.4373779c-.171984 0-.30757.1408413-.30757.30224 0 .1719834.135586.3074964.30757.3074964.166798 0 .30728-.1406973.30728-.3074964 0-.1667629-.140482-.30224-.30728-.30224M39.222065 6.5159736h.45845431v2.4648309H39.222065zM44.577286 7.8448931v-.1198159c0-.7660948-.375073-1.2716041-1.021281-1.2716041-.630327 0-1.042231.5524206-1.042231 1.2611272 0 .6878977.369996 1.3183712 1.172596 1.3183712.286471 0 .604302-.09393.818083-.2553289l-.130365-.3074962c-.166797.098934-.385621.1719834-.599259.1719834-.49489 0-.776318-.3595918-.776318-.7972729h1.578775m-.489669-.3595917h-1.094292c0-.3544073.213638-.6565394.557462-.6565394.359628 0 .53683.3387104.53683.6565394z"/>
    <path d="M32.175654 8.2928706c0-.8232663-1.14646-.6877895-1.14646-1.18275 0-.1980131.182281-.2813948.422056-.2813948.260298 0 .45327.073049.635514.151102v-.3960262c-.171983-.0730486-.375216-.1303645-.651139-.1303645-.573229 0-.859988.302276-.859988.6774208 0 .8599168 1.12565.6619037 1.12565 1.2089598 0 .2083459-.198013.3335261-.484484.3335261-.265805 0-.484772-.1042629-.620213-.1927927l-.166799.3491871c.177204.1092671.416836.2032333.792196.2032333.51055 0 .953667-.2137821.953667-.7401009M36.474256 6.5631968c-.176186-.1409856-.719089-.037431-.946192.2291307l-.057244-.2762103h-.385766V8.980804h.463819V7.1778769c.100699-.1255762.338028-.2462072.524233-.2462072.07553 0 .142677.00749.236667.054484l.164483-.4229568M38.81364168 6.51611744h-.45355798l-.72469191 1.8500903-.66492796-1.8500903H36.473775l.95827535 2.46468693h.36182391l1.01976742-2.46468693M42.231215 8.7828271l-.130364-.3179731c-.161436.099079-.349043.1824601-.6043.1824601-.500362 0-.781793-.3960262-.781793-.9015357 0-.5210624.302348-.9066838.786833-.9066838.265949 0 .474222.078197.635658.1876083l.0053-.411723c-.16155-.0885301-.390779-.1615789-.651254-.1615789-.797274 0-1.240246.6150647-1.240246 1.3185873 0 .6773127.396026 1.2609113 1.167124 1.2609113.328414.0000705.625433-.1251083.813042-.2500725M46.556541 8.2928706c0-.8232663-1.14646-.6877895-1.14646-1.18275 0-.1980131.182389-.2813948.422057-.2813948.260584 0 .453412.073049.6358.151102v-.3960262c-.171983-.0730486-.375216-.1303645-.651569-.1303645-.573088 0-.859702.302276-.859702.6774208 0 .8599168 1.125507.6619037 1.125507 1.2089598 0 .2083459-.197869.3335261-.484486.3335261-.265804 0-.484626-.1042629-.620068-.1927927l-.166798.3491871c.177202.1092671.416836.2032333.792052.2032333.510692 0 .953667-.2137821.953667-.7401009"/>
    <g transform="translate(-.13556854 -.3229499) scale(.03585)">
      <path d="M162.953 191.145c-6.512 0-11.887.928-18.754 7.24l-1.879-7.236h-14.828v68.455h17.578V211.95c4.043-3.816 8.91-4.488 12.961-4.488 1.383 0 3.102.176 4.922.752v-17.069M236.16 191.148h-17.847l-16.528 44.45-15.933-44.45h-19.247l27.899 68.456h13.18l28.476-68.456M348.82 245.564v14.039h-12.297c-13.375 0-19.004-7.691-19.004-18.135v-36.195h-10.137v-14.125h10.137v-15.779l17.371-5.213v20.992h16.004v14.125H334.89v30.943c0 6.465 2.398 9.348 8.582 9.348h5.348"/>
      <path fill-rule="evenodd" d="M110.77 259.604H94.688l-1.43-6.078c-4.488 4.051-10.715 7.527-19.828 7.527-12.594 0-22.434-8.955-22.434-22.412 0-14.188 11.145-22.268 28.656-22.848l12.363-.436v-1.537c0-8.252-5.996-10.279-13.23-10.279-6.152 0-19.281.633-19.281.633v-13.025s12.223-.631 22.754-.631c16.93 0 27.207 6.455 27.207 24.402v26.594c0 9.84.293 14.906 1.305 18.09m-18.754-16.643v-15.588l-10.047.287c-9.406.273-13.605 3.889-13.605 9.678 0 5.643 3.906 9.967 11.141 9.967 6.081 0 10.194-2.317 12.511-4.344zM408.441 225.377c0 12.885-5.5 22.973-16.355 22.973-10.566 0-16.789-9.656-16.789-22.973 0-12.736 5.352-22.684 16.352-22.684 10.71 0 16.792 9.512 16.792 22.684m17.801-.145c0-23.268-15.168-36.223-34.301-36.223-18.574 0-34.305 13.395-34.305 36.803 0 20.188 12.672 35.932 34.16 35.932 21.106 0 34.446-15.814 34.446-36.512z"/>
      <path fill-rule="evenodd" d="M297.813 259.604h-16.074l-1.438-6.078c-4.488 4.051-10.711 7.527-19.828 7.527-12.59 0-22.434-8.955-22.434-22.412 0-14.188 11.145-22.268 28.656-22.848l12.367-.436v-1.537c0-8.252-5.996-10.279-13.234-10.279-6.152 0-19.273.633-19.273.633v-13.025s12.215-.631 22.746-.631c16.934 0 27.211 6.455 27.211 24.402v26.594c0 9.84.289 14.906 1.301 18.09m-18.75-16.643v-15.588l-10.051.287c-9.406.273-13.602 3.889-13.602 9.678 0 5.643 3.902 9.967 11.145 9.967 6.074 0 10.191-2.317 12.508-4.344z" clip-path="url(#b)"/>
    </g>
    <g transform="matrix(.0361 0 0 .0361 -.21702062 -.366)">
      <path d="M94.078 19.854c15.465-5.629 30.805-9.324 45.301-11.193.527-.063.648.354.117.518-8.785 2.822-17.715 6.311-26.645 10.471-59.945 27.945-96.59 75.445-82.328 106.004 7.996 17.133 30.34 25.453 59.086 24.496.547-.008.566.461.039.529-42.281 4.848-77.109-6.045-85.965-30.361-12.038-33.07 28.633-77.986 90.395-100.464" clip-path="url(#b)"/>
      <path d="M90.039 129.686c-12.738-7.744-14.883-25.148.371-47.689.281-.412.625-.223.48.248-4.738 12.996-2.168 29.018 11.238 35.496 21.914 10.584 60.23-.984 88.984-22.324.395-.287.691.037.352.422-39.472 38.974-85.198 43.706-101.425 33.847" clip-path="url(#b)"/>
      <path d="M179.063 131.953c-15.465 5.627-30.805 9.328-45.301 11.191-.523.064-.648-.352-.117-.516 8.785-2.82 17.715-6.309 26.645-10.469 59.945-27.947 96.586-75.447 82.328-106.008C234.622 9.024 212.278.7 183.528 1.655c-.543.012-.563-.455-.039-.527 42.285-4.848 77.113 6.045 85.969 30.363 12.038 33.07-28.634 77.986-90.395 100.462" clip-path="url(#b)"/>
      <path d="M183.098 22.121c12.742 7.744 14.887 25.152-.363 47.691-.285.408-.629.225-.48-.252 4.734-12.992 2.168-29.016-11.242-35.492-21.914-10.588-60.23.98-88.984 22.324-.395.289-.691-.035-.352-.42 39.471-38.976 85.198-43.706 101.421-33.851"/>
    </g>
    <path fill-rule="evenodd" d="M19.399453 5.4456646c-.171984 0-.307569.1408413-.307569.30224 0 .1719834.135585.3074964.307569.3074964.166798 0 .307281-.1406973.307281-.3074964 0-.166763-.140483-.30224-.307281-.30224M19.170225 6.52426h.45845431v2.4648309H19.170225zM23.009055 5.4456646c-.171983 0-.307569.1408413-.307569.30224 0 .1719834.135586.3074964.307569.3074964.166798 0 .307281-.1406973.307281-.3074964 0-.166763-.140483-.30224-.307281-.30224M22.779827 6.52426h.45845431v2.4648309H22.779827z"/>
    <path d="M18.02864 5.3413216v1.17488c-1.245373-.2114784-1.644832.6579328-1.644832 1.292368 0 1.3863584 1.456851 1.3628608 2.067789 1.0103968V5.3413216zm-.354621 1.5274359c.10794-.0008037.226118.01386.354621.046903v1.644832c-.610938.1879811-1.221875-.0704925-1.221875-.7754205 0-.4560003.284378-.9119776.867254-.9163145zM22.199326 6.3908659c-.229222.0032-.398797.064567-.513.1799493a.96094486.91627759 0 0 0-.462242-.1141377.96094486.91627759 0 0 0-.960969.9162687.96094486.91627759 0 0 0 .401937.7438459c-.216915.1538324-.286652.311151-.286652.4437007 0 .1360205.073.2350512.178205.3065243-.328316.14808-.460176.3441299-.460176.6333797 0 .3865083.352464.6579332 1.033894.6579332.610938 0 .913834-.09842 1.127885-.2819716.313956-.2692165.245957-.6886453.05829-.8694112-.250914-.2416806-.904199-.3289664-1.115677-.3289664-.234976 0-.399459-.09399-.399459-.2114784 0-.07038.02479-.1467477.08775-.2353891a.96094486.91627759 0 0 0 .334978.058102.96094486.91627759 0 0 0 .960924-.9162687.96094486.91627759 0 0 0-.244614-.6093313c.10594-.034445.211874-.030094.317814-.012437l.117488-.352464c-.06228-.00602-.121058-.00862-.17637-.00785zm-.984696.4705944a.51694339.52428769 0 0 1 .516947.5242902.51694339.52428769 0 0 1-.516947.5242902.51694339.52428769 0 0 1-.516947-.5242902.51694339.52428769 0 0 1 .516947-.5242902zm-.394503 2.1204749c.09087.025201.183132.040554.263201.04851.246024.024443 1.159629.1085862.845914.58744-.120084.1832951-.423395.2278224-.728426.2114784-.351567-.018837-.695061-.1409856-.695061-.469952 0-.1378226.136656-.2702123.314372-.3774764zM28.203101 5.3413216h.422957v3.1016832c0 .2114784.211478.1879808.328966.1644832l.047.3054688c-.352464.2114784-.798919.070493-.798919-.234976zM24.138016 5.9992544l.422957-.1409856v.6814304h.775421l-.164483.3759616h-.610938v1.4803488c0 .234976.293418.3289664.681431.09399l.140985.2819712c-.493449.3054692-1.245373.4464548-1.245373-.328966v-1.527344h-.399459v-.3759616h.399459zM26.699025 6.4747138c-.248314.00255-.547558.087014-.892679.2999614l.164483.2819712c.446454-.3054688 1.151382-.2819712 1.151382.234976v.1644832c-.0235.010939-.146638.039629-.352464.023498-.319631-.025051-1.104387.025721-1.104387.7989184 0 .469952.58744 1.1513824 1.480349.4464544.03497.069802.06529.1404867.09399.2114784h.352464c-.021-.1648688-.04699-.3994592-.04699-.6109376v-1.17488c0-.2907828-.299853-.6815394-.846143-.675923zm.07072 1.3338558c.310839.00326.328967-.023498.352464-.023498v.6344352c-.634435.4934496-1.033894.117488-1.033894-.2114784 0-.3245606.400632-.3999665.68143-.3994588z"/>
  </g>
</svg>
