<svg xmlns="http://www.w3.org/2000/svg" width="54.577652" height="14" viewBox="0 0 54.577654 14"><g transform="matrix(1.3333333,0,0,-1.3333333,-33.191525,186.78968)"><path d="M26.015578 138.79691c.129397.64767.711583 1.16575 1.358709 1.16575h4.075991c.646953 0 1.6821-.12926 2.329088-.19407 0 0 4.270018-.64767 3.687798-3.88641-.582324-3.04446-3.234975-3.95131-6.534615-3.95131H25.88618c-.646981 0-1.099797.51811-.970403 1.10115zm3.687797-3.75681c-.129397-.64802 0-1.1661.323426-1.1661.258898 0 1.035284.19441 1.61747.38882 0 0 .970413.38847 1.229346 1.68417.258761 1.42496 0 2.13744-1.552875 2.13744-.58222 0-1.164406-.51808-1.293941-1.16576l-.323426-1.87857M47.495308 132.0604c-.841119-.12953-2.070328-.32383-3.170242-.32383-3.817196 0-6.599107 1.42509-6.016886 4.27522.517556 2.72031 3.881825 4.08047 7.569623 4.08047 1.229312 0 1.8763-.1296 3.040844-.25886l-.194028-.97169c-.06477-.64768-.711755-1.03615-1.358709-.90689 0 0-.258795.0648-.970517.0648-1.876162 0-3.364269-.71248-3.623064-2.00783-.258761-1.42531.905783-2.13779 2.717281-2.13779.776386 0 1.293942.12961 1.293942.12961.647126.1296 1.035319-.32367.905783-.97159l-.194027-.97162M49.889026 138.79691c.129535.64767.646988 1.16575 1.358708 1.16575.776386 0 4.140758 0 4.140758 0 .646851 0 1.293908-.51808 1.35871-1.16575l.323322-2.07264c.0648-.64802.194062-1.1661.194062-1.1661 0 0 .258864.45362.582185 1.03649l1.164717 2.33185c.323322.51807 1.099914 1.03615 1.746902 1.03615h4.075991c.646988 0 1.099914-.51808.97031-1.16575l-1.099914-5.76489c-.06446-.58304-.194062-1.10115-.194062-1.10115h-2.717213c-.646988 0-1.099914.51811-.970654 1.10115l.71179 4.01591c.0648.64768-.06446.58288-.06446.58288 0 0-.0648.12995-.323667-.45327l-2.329088-4.27505c-.323322-.51814-1.099914-.97162-1.746902-.97162h-1.293977c-.646988 0-1.229174.51811-1.358571 1.10115l-.582359 4.01591c-.129259.64768-.194165.64768-.258795.64768 0 .0652-.129363 0-.258623-.64768l-.776523-4.01591c-.129398-.58304-.711584-1.10115-1.358572-1.10115h-1.423476c-.646816 0-1.035009.51811-.905749 1.10115l1.035147 5.76489" fill-rule="evenodd"/><path style="line-height:1.25;-inkscape-font-specification:'sans-serif Bold'" d="M50.499431 131.56824l-.07364-.42333q-.205396.0737-.40644.11119-.201043.0375-.385549.0375-.244825 0-.37077-.0509-.125947-.0509-.144591-.15808-.01399-.0804.05615-.12593.07214-.0442.274119-.0764l.283261-.0442q.430096-.067.592604-.20363.162509-.13664.118695-.38849-.05757-.3309-.346556-.49299-.286984-.16076-.820986-.16076-.251921 0-.499325.0362-.247403.0362-.488746.10717l.07574.43539q.235984-.10182.462849-.15407.228873-.0509.44886-.0509.223536 0 .352189.0563.128652.0563.146831.16077.01631.0938-.05644.14468-.07098.0509-.305264.0911l-.256649.0442q-.38621.0643-.546245.20497-.158261.14066-.116777.37912.05197.29874.335406.4595.283436.16076.762441.16076.218214 0 .444417-.0255.226437-.0241.464413-.0737zM50.834179 131.63121h.65464l.204854-1.45352.70703 1.45352h.658191l.201304-1.45352.71058 1.45352h.649319l-.972434-2.0001h-.787695l-.216263 1.5205-.739976-1.5205h-.787695zM54.842765 131.63121h1.843285l-.06782-.38984h-1.160259l-.06479-.37243h1.09107l-.06782-.38983h-1.091066l-.07971-.45816h1.199289l-.06782-.38984H54.49481zM57.715526 131.24137l-.21231-1.22042h.244825q.418684 0 .665939.15674.249031.15673.301003.45548.05174.2974-.141217.4528-.192955.1554-.613415.1554zm-.615204.38984h.72028q.603192 0 .886271-.0657.285088-.0643.469171-.2197.162743-.1353.222458-.31214.05971-.17683.02082-.40055-.03938-.2264-.160864-.40458-.121242-.17683-.33106-.31214-.239927-.1554-.549396-.22104-.30923-.0643-.905328-.0643h-.72028zM59.890106 131.63121h1.843282l-.06782-.38984H60.50531l-.06479-.37243h1.091069l-.06782-.38983h-1.09107l-.0797-.45816h1.199286l-.06782-.38984H59.54215zM62.14766 131.63121h.76286l.724689-1.3718.238648 1.3718h.64754l-.34795-2.0001h-.76286l-.724686 1.3718-.238644-1.3718H61.79971z" font-weight="700" font-size="9.15971279" font-family="sans-serif" letter-spacing="-.57019204" word-spacing="0"/></g></svg>