<?xml version="1.0" encoding="UTF-8" standalone="no"?>
<!-- Created with Inkscape (http://www.inkscape.org/) -->

<svg
   xmlns:dc="http://purl.org/dc/elements/1.1/"
   xmlns:cc="http://creativecommons.org/ns#"
   xmlns:rdf="http://www.w3.org/1999/02/22-rdf-syntax-ns#"
   xmlns:svg="http://www.w3.org/2000/svg"
   xmlns="http://www.w3.org/2000/svg"
   xmlns:sodipodi="http://sodipodi.sourceforge.net/DTD/sodipodi-0.dtd"
   xmlns:inkscape="http://www.inkscape.org/namespaces/inkscape"
   version="1.1"
   id="svg2"
   width="367.00195"
   height="201.80273"
   viewBox="0 0 367.00195 201.80273"
   sodipodi:docname="DVD.svg"
   inkscape:version="0.92.4 5da689c313, 2019-01-14">
  <metadata
     id="metadata8">
    <rdf:RDF>
      <cc:Work
         rdf:about="">
        <dc:format>image/svg+xml</dc:format>
        <dc:type
           rdf:resource="http://purl.org/dc/dcmitype/StillImage" />
        <dc:title></dc:title>
      </cc:Work>
    </rdf:RDF>
  </metadata>
  <defs
     id="defs6" />
  <sodipodi:namedview
     pagecolor="#ffffff"
     bordercolor="#666666"
     borderopacity="1"
     objecttolerance="10"
     gridtolerance="10"
     guidetolerance="10"
     inkscape:pageopacity="0"
     inkscape:pageshadow="2"
     inkscape:window-width="2498"
     inkscape:window-height="1376"
     id="namedview4"
     showgrid="false"
     inkscape:zoom="2.191867"
     inkscape:cx="189.44209"
     inkscape:cy="105.96908"
     inkscape:window-x="62"
     inkscape:window-y="27"
     inkscape:window-maximized="1"
     inkscape:current-layer="svg2"
     fit-margin-top="0"
     fit-margin-left="0"
     fit-margin-right="0"
     fit-margin-bottom="0" />
  <path
     style="color:#000000;font-style:normal;font-variant:normal;font-weight:normal;font-stretch:normal;font-size:medium;line-height:normal;font-family:sans-serif;font-variant-ligatures:normal;font-variant-position:normal;font-variant-caps:normal;font-variant-numeric:normal;font-variant-alternates:normal;font-feature-settings:normal;text-indent:0;text-align:start;text-decoration:none;text-decoration-line:none;text-decoration-style:solid;text-decoration-color:#000000;letter-spacing:normal;word-spacing:normal;text-transform:none;writing-mode:lr-tb;direction:ltr;text-orientation:mixed;dominant-baseline:auto;baseline-shift:baseline;text-anchor:start;white-space:normal;shape-padding:0;clip-rule:nonzero;display:inline;overflow:visible;visibility:visible;opacity:1;isolation:auto;mix-blend-mode:normal;color-interpolation:sRGB;color-interpolation-filters:linearRGB;solid-color:#000000;solid-opacity:1;vector-effect:none;fill:#000000;fill-opacity:1;fill-rule:nonzero;stroke:none;stroke-width:1.70000005;stroke-linecap:butt;stroke-linejoin:miter;stroke-miterlimit:4;stroke-dasharray:none;stroke-dashoffset:0;stroke-opacity:1;color-rendering:auto;image-rendering:auto;shape-rendering:auto;text-rendering:auto;enable-background:accumulate"
     d="m 0,134.10351 v 1.69922 h 367.00195 v -1.69922 z"
     id="path4555"
     inkscape:connector-curvature="0" />
  <g
     id="g844"
     transform="translate(-31.440359,-17.341797)"
     style="fill:#000000;fill-opacity:1">
    <path
       id="path4568"
       d="M 217.92578,17.341797 A 34.662663,25.034582 0 0 0 183.26367,42.375 34.662663,25.034582 0 0 0 217.92578,67.410156 34.662663,25.034582 0 0 0 252.58789,42.375 34.662663,25.034582 0 0 0 217.92578,17.341797 Z m 0,18.775391 a 8.6656656,6.2586455 0 0 1 8.66602,6.257812 8.6656656,6.2586455 0 0 1 -8.66602,6.259766 8.6656656,6.2586455 0 0 1 -8.66601,-6.259766 8.6656656,6.2586455 0 0 1 8.66601,-6.257812 z"
       style="opacity:1;fill:#000000;fill-opacity:1;stroke:none;stroke-width:1.34020257;stroke-linejoin:round;stroke-miterlimit:4;stroke-dasharray:none;stroke-opacity:1"
       inkscape:connector-curvature="0" />
    <path
       id="path831"
       d="M 180.15625,34.644531 A 179.00751,116.94423 0 0 0 36.246094,144.11328 182.23355,116.94423 0 0 1 181.13867,52.466797 39.179131,29.551048 0 0 1 178.74609,42.375 a 39.179131,29.551048 0 0 1 1.41016,-7.730469 z m 75.83789,0.886719 A 39.179131,29.551048 0 0 1 257.10547,42.375 39.179131,29.551048 0 0 1 254.31445,53.255859 182.23355,116.94423 0 0 1 393.63672,145.14648 179.00751,116.94423 0 0 0 255.99414,35.53125 Z"
       style="opacity:1;fill:#000000;fill-opacity:1;stroke:none;stroke-width:3.78804088;stroke-linejoin:round;stroke-miterlimit:4;stroke-dasharray:none;stroke-opacity:1"
       inkscape:connector-curvature="0" />
  </g>
  <path
     style="color:#000000;font-style:normal;font-variant:normal;font-weight:normal;font-stretch:normal;font-size:medium;line-height:normal;font-family:sans-serif;font-variant-ligatures:normal;font-variant-position:normal;font-variant-caps:normal;font-variant-numeric:normal;font-variant-alternates:normal;font-feature-settings:normal;text-indent:0;text-align:start;text-decoration:none;text-decoration-line:none;text-decoration-style:solid;text-decoration-color:#000000;letter-spacing:normal;word-spacing:normal;text-transform:none;writing-mode:lr-tb;direction:ltr;text-orientation:mixed;dominant-baseline:auto;baseline-shift:baseline;text-anchor:start;white-space:normal;shape-padding:0;clip-rule:nonzero;display:inline;overflow:visible;visibility:visible;opacity:1;isolation:auto;mix-blend-mode:normal;color-interpolation:sRGB;color-interpolation-filters:linearRGB;solid-color:#000000;solid-opacity:1;vector-effect:none;fill:#000000;fill-opacity:1;fill-rule:nonzero;stroke:none;stroke-width:1.70000005;stroke-linecap:butt;stroke-linejoin:miter;stroke-miterlimit:4;stroke-dasharray:none;stroke-dashoffset:0;stroke-opacity:1;color-rendering:auto;image-rendering:auto;shape-rendering:auto;text-rendering:auto;enable-background:accumulate"
     d="m 0,200.10351 v 1.69922 h 367.00195 v -1.69922 z"
     id="path846"
     inkscape:connector-curvature="0" />
  <path
     inkscape:connector-curvature="0"
     d="m 195.70607,80.852711 c 0,0 -15.01921,14.821492 -14.25093,15.766562 1.06554,-0.94507 -5.39219,-15.928598 -5.39219,-15.928598 0,0 -1.34749,-3.15051 -5.57578,-13.477035 H 155.17726 118.02211 90.004401 l -2.79773,9.694146 h 21.091159 5.00421 c 13.56789,0 21.85179,4.494972 19.5382,12.459267 -2.49937,8.672 -14.34164,12.374307 -26.95545,12.374307 h -4.7168 l 6.06757,-21.203087 H 86.148781 l -8.95273,30.977817 H 107.1383 c 22.52609,0 43.89592,-9.69327 47.74935,-22.149037 0.6743,-2.28953 0.57922,-8.044875 -1.15188,-11.432746 0,-0.08146 -0.0994,-0.237361 -0.19453,-0.470343 -0.0951,-0.08146 -0.19453,-0.63238 0.19453,-0.712959 0.18798,-0.08058 0.57375,0.237361 0.57375,0.313562 0,0 0.19563,0.399397 0.3836,0.712083 l 19.05952,44.06947 48.52747,-44.85863 20.5032,-0.08058 h 5.00421 c 13.57773,0 21.95562,4.494973 19.63765,12.459263 -2.50265,8.67201 -14.43125,12.374317 -27.04834,12.374317 h -4.81407 l 6.15828,-21.202216 H 220.643 l -8.95928,30.977816 h 29.94225 c 22.52498,0 44.08935,-9.69327 47.65318,-22.149037 3.6578,-12.459267 -12.13187,-22.153412 -34.85139,-22.153412 h -19.82781 -24.83748 c -11.84008,11.429247 -14.0564,13.63907 -14.0564,13.63907 z"
     id="path906"
     style="fill:#000000;fill-opacity:1;stroke-width:0.97836971" />
  <g
     id="g991"
     transform="translate(-29.680768,-17.341797)"
     style="fill:#000000;fill-opacity:1">
    <g
       aria-label="DANISH VIDEO"
       transform="matrix(1.6827392,0,0,1.3039025,-28.018461,-35.836078)"
       style="font-style:normal;font-weight:normal;font-size:40px;line-height:0;font-family:sans-serif;letter-spacing:0px;word-spacing:0px;fill:#000000;fill-opacity:1;stroke:none"
       id="flowRoot951">
      <path
         d="m 41.430338,165.84245 h 2.421875 q 3.789063,0 5.807292,-2.16146 2.03125,-2.16146 2.03125,-6.19792 0,-4.03646 -2.018229,-6.17187 -2.018229,-2.13542 -5.820313,-2.13542 h -2.421875 z m -5.117187,1.38021 v -1.38021 h 2.473958 v -16.66667 h -2.473958 v -1.39323 h 7.734375 q 5.026041,0 7.82552,2.56511 2.8125,2.5651 2.8125,7.13541 0,4.58334 -2.8125,7.16146 -2.812499,2.57813 -7.82552,2.57813 z"
         style="font-style:normal;font-variant:normal;font-weight:normal;font-stretch:normal;font-size:26.66666603px;line-height:0;font-family:serif;-inkscape-font-specification:serif;text-align:justify;text-anchor:start;fill:#000000;fill-opacity:1"
         id="path993"
         inkscape:connector-curvature="0" />
      <path
         d="m 61.560545,160.17839 h 7.135417 l -3.567708,-9.2448 z m -5.494791,7.04427 v -1.38021 h 1.705729 l 6.927083,-18.0599 h 2.1875 l 6.940104,18.0599 h 1.914063 v 1.38021 H 68.66992 v -1.38021 h 2.161459 l -1.627605,-4.27084 h -8.177083 l -1.627604,4.27084 h 2.135417 v 1.38021 z"
         style="font-style:normal;font-variant:normal;font-weight:normal;font-stretch:normal;font-size:26.66666603px;line-height:0;font-family:serif;-inkscape-font-specification:serif;text-align:justify;text-anchor:start;fill:#000000;fill-opacity:1"
         id="path995"
         inkscape:connector-curvature="0" />
      <path
         d="m 76.7819,167.22266 v -1.38021 h 2.617187 V 149.17578 H 76.7819 v -1.39323 h 4.986979 l 11.653645,15.33854 v -13.94531 h -2.604166 v -1.39323 h 6.822916 v 1.39323 h -2.617187 v 18.42448 H 93.448566 L 81.00065,151.22005 v 14.6224 h 2.617187 v 1.38021 z"
         style="font-style:normal;font-variant:normal;font-weight:normal;font-stretch:normal;font-size:26.66666603px;line-height:0;font-family:serif;-inkscape-font-specification:serif;text-align:justify;text-anchor:start;fill:#000000;fill-opacity:1"
         id="path997"
         inkscape:connector-curvature="0" />
      <path
         d="m 105.40169,165.84245 h 2.47396 v 1.38021 h -7.59115 v -1.38021 h 2.47396 v -16.66667 h -2.47396 v -1.39323 h 7.59115 v 1.39323 h -2.47396 z"
         style="font-style:normal;font-variant:normal;font-weight:normal;font-stretch:normal;font-size:26.66666603px;line-height:0;font-family:serif;-inkscape-font-specification:serif;text-align:justify;text-anchor:start;fill:#000000;fill-opacity:1"
         id="path999"
         inkscape:connector-curvature="0" />
      <path
         d="m 111.82096,166.28516 v -4.42709 l 1.49739,0.013 q 0.0651,2.21355 1.27605,3.28125 1.22395,1.05469 3.71093,1.05469 2.31771,0 3.52865,-0.91146 1.22396,-0.92448 1.22396,-2.68229 0,-1.40625 -0.74219,-2.16146 -0.72917,-0.75521 -3.09896,-1.47135 l -2.5651,-0.76823 q -2.78646,-0.84635 -3.93229,-2.10938 -1.13282,-1.26302 -1.13282,-3.46354 0,-2.47396 1.75782,-3.84114 1.75781,-1.36719 4.93489,-1.36719 1.35417,0 2.96875,0.29948 1.61458,0.28646 3.4375,0.84635 v 4.14063 h -1.47135 q -0.22136,-2.05729 -1.38021,-2.96875 -1.14583,-0.92448 -3.50261,-0.92448 -2.05729,0 -3.13802,0.84635 -1.0677,0.83334 -1.0677,2.4349 0,1.39323 0.80729,2.1875 0.80729,0.79427 3.42448,1.57552 l 2.40885,0.71615 q 2.64323,0.79427 3.76302,2.03125 1.13281,1.22395 1.13281,3.29427 0,2.82552 -1.80989,4.25781 -1.8099,1.43229 -5.39063,1.43229 -1.60156,0 -3.26823,-0.32552 -1.65364,-0.32552 -3.37239,-0.98958 z"
         style="font-style:normal;font-variant:normal;font-weight:normal;font-stretch:normal;font-size:26.66666603px;line-height:0;font-family:serif;-inkscape-font-specification:serif;text-align:justify;text-anchor:start;fill:#000000;fill-opacity:1"
         id="path1001"
         inkscape:connector-curvature="0" />
      <path
         d="m 129.08659,167.22266 v -1.38021 h 2.47396 v -16.66667 h -2.47396 v -1.39323 h 7.59114 v 1.39323 h -2.47395 v 6.71875 h 10.07812 v -6.71875 h -2.47396 v -1.39323 h 7.59115 v 1.39323 h -2.47396 v 16.66667 h 2.47396 v 1.38021 h -7.59115 v -1.38021 h 2.47396 v -8.35938 h -10.07812 v 8.35938 h 2.47395 v 1.38021 z"
         style="font-style:normal;font-variant:normal;font-weight:normal;font-stretch:normal;font-size:26.66666603px;line-height:0;font-family:serif;-inkscape-font-specification:serif;text-align:justify;text-anchor:start;fill:#000000;fill-opacity:1"
         id="path1003"
         inkscape:connector-curvature="0" />
      <path
         d="m 164.00846,149.17578 5.74219,14.92188 5.72916,-14.92188 h -2.1875 v -1.39323 h 5.70313 v 1.39323 h -1.88802 l -6.94011,18.04688 h -2.23958 l -6.90104,-18.04688 h -1.94011 v -1.39323 h 7.08334 v 1.39323 z"
         style="font-style:normal;font-variant:normal;font-weight:normal;font-stretch:normal;font-size:26.66666603px;line-height:0;font-family:serif;-inkscape-font-specification:serif;text-align:justify;text-anchor:start;fill:#000000;fill-opacity:1"
         id="path1005"
         inkscape:connector-curvature="0" />
      <path
         d="m 185.19335,165.84245 h 2.47396 v 1.38021 h -7.59114 v -1.38021 h 2.47396 v -16.66667 h -2.47396 v -1.39323 h 7.59114 v 1.39323 h -2.47396 z"
         style="font-style:normal;font-variant:normal;font-weight:normal;font-stretch:normal;font-size:26.66666603px;line-height:0;font-family:serif;-inkscape-font-specification:serif;text-align:justify;text-anchor:start;fill:#000000;fill-opacity:1"
         id="path1007"
         inkscape:connector-curvature="0" />
      <path
         d="m 195.72721,165.84245 h 2.42188 q 3.78906,0 5.80729,-2.16146 2.03125,-2.16146 2.03125,-6.19792 0,-4.03646 -2.01823,-6.17187 -2.01823,-2.13542 -5.82031,-2.13542 h -2.42188 z m -5.11718,1.38021 v -1.38021 h 2.47395 v -16.66667 h -2.47395 v -1.39323 h 7.73437 q 5.02604,0 7.82552,2.56511 2.8125,2.5651 2.8125,7.13541 0,4.58334 -2.8125,7.16146 -2.8125,2.57813 -7.82552,2.57813 z"
         style="font-style:normal;font-variant:normal;font-weight:normal;font-stretch:normal;font-size:26.66666603px;line-height:0;font-family:serif;-inkscape-font-specification:serif;text-align:justify;text-anchor:start;fill:#000000;fill-opacity:1"
         id="path1009"
         inkscape:connector-curvature="0" />
      <path
         d="m 211.99023,167.22266 v -1.38021 h 2.47396 v -16.66667 h -2.47396 v -1.39323 h 15.65104 v 4.32292 h -1.60156 v -2.72135 h -8.93229 v 6.51041 h 6.36718 v -2.43489 h 1.60157 v 6.45833 h -1.60157 v -2.4349 h -6.36718 v 8.13802 h 9.14062 v -2.72135 h 1.60156 v 4.32292 z"
         style="font-style:normal;font-variant:normal;font-weight:normal;font-stretch:normal;font-size:26.66666603px;line-height:0;font-family:serif;-inkscape-font-specification:serif;text-align:justify;text-anchor:start;fill:#000000;fill-opacity:1"
         id="path1011"
         inkscape:connector-curvature="0" />
      <path
         d="m 240.92252,166.20703 q 3.1901,0 4.8177,-2.1875 1.62761,-2.20052 1.62761,-6.49739 0,-4.3099 -1.62761,-6.4974 -1.6276,-2.20052 -4.8177,-2.20052 -3.20313,0 -4.83073,2.20052 -1.62761,2.1875 -1.62761,6.4974 0,4.29687 1.62761,6.49739 1.6276,2.1875 4.83073,2.1875 z m 0,1.39323 q -1.97917,0 -3.64584,-0.65104 -1.65364,-0.65104 -2.91666,-1.91406 -1.45834,-1.45834 -2.17448,-3.3073 -0.70313,-1.84895 -0.70313,-4.20572 0,-2.35678 0.70313,-4.20573 0.71614,-1.86198 2.17448,-3.32032 1.27604,-1.27604 2.91666,-1.91406 1.64063,-0.65104 3.64584,-0.65104 4.23177,0 6.83593,2.77344 2.60417,2.77343 2.60417,7.31771 0,2.33072 -0.71615,4.20572 -0.71614,1.86198 -2.17448,3.3073 -1.27604,1.27604 -2.91666,1.92708 -1.64063,0.63802 -3.63281,0.63802 z"
         style="font-style:normal;font-variant:normal;font-weight:normal;font-stretch:normal;font-size:26.66666603px;line-height:0;font-family:serif;-inkscape-font-specification:serif;text-align:justify;text-anchor:start;fill:#000000;fill-opacity:1"
         id="path1013"
         inkscape:connector-curvature="0" />
    </g>
    <g
       aria-label="DUPLICATION"
       transform="matrix(1.7135229,0,0,1.3039025,-29.136316,-5.5112277)"
       style="font-style:normal;font-weight:normal;font-size:40px;line-height:0;font-family:sans-serif;letter-spacing:0px;word-spacing:0px;fill:#000000;fill-opacity:1;stroke:none"
       id="flowRoot969">
      <path
         d="m 41.430338,165.84245 h 2.421875 q 3.789063,0 5.807292,-2.16146 2.03125,-2.16146 2.03125,-6.19792 0,-4.03646 -2.018229,-6.17187 -2.018229,-2.13542 -5.820313,-2.13542 h -2.421875 z m -5.117187,1.38021 v -1.38021 h 2.473958 v -16.66667 h -2.473958 v -1.39323 h 7.734375 q 5.026041,0 7.82552,2.56511 2.8125,2.5651 2.8125,7.13541 0,4.58334 -2.8125,7.16146 -2.812499,2.57813 -7.82552,2.57813 z"
         style="font-style:normal;font-variant:normal;font-weight:normal;font-stretch:normal;font-size:26.66666603px;line-height:0;font-family:serif;-inkscape-font-specification:serif;text-align:justify;text-anchor:start;fill:#000000;fill-opacity:1"
         id="path1016"
         inkscape:connector-curvature="0" />
      <path
         d="m 59.958983,149.17578 h -2.486979 v -1.39323 h 7.604166 v 1.39323 h -2.486979 v 10.05208 q 0,3.72396 1.210938,5.19532 1.223958,1.47135 4.205729,1.47135 2.981771,0 4.192708,-1.47135 1.223958,-1.47136 1.223958,-5.19532 v -10.05208 h -2.486979 v -1.39323 h 6.5625 v 1.39323 h -2.473958 v 10.3125 q 0,4.44011 -1.705729,6.27604 -1.705729,1.83594 -5.794271,1.83594 -4.088542,0 -5.833333,-1.84896 -1.731771,-1.84896 -1.731771,-6.26302 z"
         style="font-style:normal;font-variant:normal;font-weight:normal;font-stretch:normal;font-size:26.66666603px;line-height:0;font-family:serif;-inkscape-font-specification:serif;text-align:justify;text-anchor:start;fill:#000000;fill-opacity:1"
         id="path1018"
         inkscape:connector-curvature="0" />
      <path
         d="m 85.284503,157.32682 h 3.437499 q 1.940105,0 2.95573,-1.04166 1.015624,-1.05469 1.015624,-3.03386 0,-1.99219 -1.015624,-3.03385 -1.015625,-1.04167 -2.95573,-1.04167 h -3.437499 z m -5.117188,9.89584 v -1.38021 h 2.473958 v -16.66667 h -2.473958 v -1.39323 h 9.192708 q 2.916667,0 4.622396,1.48438 1.705729,1.47135 1.705729,3.98437 0,2.5 -1.705729,3.98438 -1.705729,1.48437 -4.622396,1.48437 h -4.07552 v 7.1224 h 3.007812 v 1.38021 z"
         style="font-style:normal;font-variant:normal;font-weight:normal;font-stretch:normal;font-size:26.66666603px;line-height:0;font-family:serif;-inkscape-font-specification:serif;text-align:justify;text-anchor:start;fill:#000000;fill-opacity:1"
         id="path1020"
         inkscape:connector-curvature="0" />
      <path
         d="m 98.110022,167.22266 v -1.38021 h 2.473958 v -16.66667 h -2.473958 v -1.39323 h 7.591148 v 1.39323 h -2.47396 v 16.44531 h 8.88021 v -3.2552 h 1.60156 v 4.85677 z"
         style="font-style:normal;font-variant:normal;font-weight:normal;font-stretch:normal;font-size:26.66666603px;line-height:0;font-family:serif;-inkscape-font-specification:serif;text-align:justify;text-anchor:start;fill:#000000;fill-opacity:1"
         id="path1022"
         inkscape:connector-curvature="0" />
      <path
         d="m 120.93554,165.84245 h 2.47396 v 1.38021 h -7.59115 v -1.38021 h 2.47396 v -16.66667 h -2.47396 v -1.39323 h 7.59115 v 1.39323 h -2.47396 z"
         style="font-style:normal;font-variant:normal;font-weight:normal;font-stretch:normal;font-size:26.66666603px;line-height:0;font-family:serif;-inkscape-font-specification:serif;text-align:justify;text-anchor:start;fill:#000000;fill-opacity:1"
         id="path1024"
         inkscape:connector-curvature="0" />
      <path
         d="m 143.68293,162.07943 q -0.85937,2.72135 -2.89062,4.1276 -2.01823,1.39323 -5.11719,1.39323 -1.90104,0 -3.52864,-0.65104 -1.62761,-0.65104 -2.89063,-1.91406 -1.45833,-1.45834 -2.17448,-3.3073 -0.70312,-1.86197 -0.70312,-4.20572 0,-4.53125 2.61718,-7.30469 2.61719,-2.78646 6.90105,-2.78646 1.58854,0 3.38541,0.41667 1.79688,0.41666 3.86719,1.26302 v 4.47916 h -1.47135 q -0.48177,-2.44791 -1.94011,-3.60677 -1.44531,-1.15885 -4.0625,-1.15885 -3.11198,0 -4.71354,2.21354 -1.60156,2.20052 -1.60156,6.48438 0,4.27083 1.60156,6.48437 1.60156,2.20052 4.71354,2.20052 2.17448,0 3.58073,-1.02864 1.40625,-1.04167 2.03125,-3.09896 z"
         style="font-style:normal;font-variant:normal;font-weight:normal;font-stretch:normal;font-size:26.66666603px;line-height:0;font-family:serif;-inkscape-font-specification:serif;text-align:justify;text-anchor:start;fill:#000000;fill-opacity:1"
         id="path1026"
         inkscape:connector-curvature="0" />
      <path
         d="m 150.62304,160.17839 h 7.13542 l -3.56771,-9.2448 z m -5.49479,7.04427 v -1.38021 h 1.70573 l 6.92708,-18.0599 h 2.1875 l 6.94011,18.0599 h 1.91406 v 1.38021 h -7.07031 v -1.38021 h 2.16145 l -1.6276,-4.27084 h -8.17708 l -1.62761,4.27084 h 2.13542 v 1.38021 z"
         style="font-style:normal;font-variant:normal;font-weight:normal;font-stretch:normal;font-size:26.66666603px;line-height:0;font-family:serif;-inkscape-font-specification:serif;text-align:justify;text-anchor:start;fill:#000000;fill-opacity:1"
         id="path1028"
         inkscape:connector-curvature="0" />
      <path
         d="m 168.17513,167.22266 v -1.38021 h 2.48698 v -16.51042 h -5.71615 v 3.03386 h -1.60156 v -4.58334 h 17.26563 v 4.58334 h -1.60157 v -3.03386 h -5.71614 v 16.51042 h 2.48698 v 1.38021 z"
         style="font-style:normal;font-variant:normal;font-weight:normal;font-stretch:normal;font-size:26.66666603px;line-height:0;font-family:serif;-inkscape-font-specification:serif;text-align:justify;text-anchor:start;fill:#000000;fill-opacity:1"
         id="path1030"
         inkscape:connector-curvature="0" />
      <path
         d="m 187.45898,165.84245 h 2.47396 v 1.38021 h -7.59115 v -1.38021 h 2.47396 v -16.66667 h -2.47396 v -1.39323 h 7.59115 v 1.39323 h -2.47396 z"
         style="font-style:normal;font-variant:normal;font-weight:normal;font-stretch:normal;font-size:26.66666603px;line-height:0;font-family:serif;-inkscape-font-specification:serif;text-align:justify;text-anchor:start;fill:#000000;fill-opacity:1"
         id="path1032"
         inkscape:connector-curvature="0" />
      <path
         d="m 202.34178,166.20703 q 3.19011,0 4.81771,-2.1875 1.6276,-2.20052 1.6276,-6.49739 0,-4.3099 -1.6276,-6.4974 -1.6276,-2.20052 -4.81771,-2.20052 -3.20312,0 -4.83073,2.20052 -1.6276,2.1875 -1.6276,6.4974 0,4.29687 1.6276,6.49739 1.62761,2.1875 4.83073,2.1875 z m 0,1.39323 q -1.97917,0 -3.64583,-0.65104 -1.65365,-0.65104 -2.91667,-1.91406 -1.45833,-1.45834 -2.17448,-3.3073 -0.70312,-1.84895 -0.70312,-4.20572 0,-2.35678 0.70312,-4.20573 0.71615,-1.86198 2.17448,-3.32032 1.27604,-1.27604 2.91667,-1.91406 1.64062,-0.65104 3.64583,-0.65104 4.23177,0 6.83594,2.77344 2.60417,2.77343 2.60417,7.31771 0,2.33072 -0.71615,4.20572 -0.71615,1.86198 -2.17448,3.3073 -1.27604,1.27604 -2.91667,1.92708 -1.64062,0.63802 -3.63281,0.63802 z"
         style="font-style:normal;font-variant:normal;font-weight:normal;font-stretch:normal;font-size:26.66666603px;line-height:0;font-family:serif;-inkscape-font-specification:serif;text-align:justify;text-anchor:start;fill:#000000;fill-opacity:1"
         id="path1034"
         inkscape:connector-curvature="0" />
      <path
         d="m 214.56835,167.22266 v -1.38021 h 2.61719 v -16.66667 h -2.61719 v -1.39323 h 4.98698 l 11.65364,15.33854 v -13.94531 h -2.60416 v -1.39323 h 6.82291 v 1.39323 h -2.61718 v 18.42448 h -1.57552 L 218.7871,151.22005 v 14.6224 h 2.61719 v 1.38021 z"
         style="font-style:normal;font-variant:normal;font-weight:normal;font-stretch:normal;font-size:26.66666603px;line-height:0;font-family:serif;-inkscape-font-specification:serif;text-align:justify;text-anchor:start;fill:#000000;fill-opacity:1"
         id="path1036"
         inkscape:connector-curvature="0" />
    </g>
    <g
       aria-label="A.S"
       transform="matrix(0,0.56561965,-0.43828115,0,453.82455,168.07934)"
       style="font-style:normal;font-weight:normal;font-size:40px;line-height:0;font-family:sans-serif;letter-spacing:0px;word-spacing:0px;fill:#000000;fill-opacity:1;stroke:none"
       id="flowRoot977">
      <path
         d="m 40.180338,160.17839 h 7.135417 l -3.567708,-9.2448 z m -5.494791,7.04427 v -1.38021 h 1.705729 l 6.927083,-18.0599 h 2.1875 l 6.940104,18.0599 h 1.914063 v 1.38021 h -7.070313 v -1.38021 h 2.161459 l -1.627605,-4.27084 h -8.177083 l -1.627604,4.27084 h 2.135417 v 1.38021 z"
         style="font-style:normal;font-variant:normal;font-weight:normal;font-stretch:normal;font-size:26.66666603px;line-height:0;font-family:serif;-inkscape-font-specification:serif;text-align:justify;text-anchor:start;fill:#000000;fill-opacity:1"
         id="path1039"
         inkscape:connector-curvature="0" />
      <path
         d="m 56.61263,165.86849 q 0,-0.72917 0.494792,-1.23698 0.494791,-0.50781 1.236979,-0.50781 0.716146,0 1.223958,0.50781 0.507813,0.50781 0.507813,1.23698 0,0.71615 -0.507813,1.22396 -0.507812,0.50781 -1.223958,0.50781 -0.742188,0 -1.236979,-0.49479 -0.494792,-0.50781 -0.494792,-1.23698 z"
         style="font-style:normal;font-variant:normal;font-weight:normal;font-stretch:normal;font-size:26.66666603px;line-height:0;font-family:serif;-inkscape-font-specification:serif;text-align:justify;text-anchor:start;fill:#000000;fill-opacity:1"
         id="path1041"
         inkscape:connector-curvature="0" />
      <path
         d="m 65.05013,166.28516 v -4.42709 l 1.497396,0.013 q 0.0651,2.21355 1.276042,3.28125 1.223958,1.05469 3.710937,1.05469 2.317708,0 3.528646,-0.91146 1.223958,-0.92448 1.223958,-2.68229 0,-1.40625 -0.742187,-2.16146 -0.729167,-0.75521 -3.098959,-1.47135 l -2.565104,-0.76823 q -2.786458,-0.84635 -3.932291,-2.10938 -1.132813,-1.26302 -1.132813,-3.46354 0,-2.47396 1.757813,-3.84114 1.757812,-1.36719 4.934895,-1.36719 1.354167,0 2.96875,0.29948 1.614584,0.28646 3.4375,0.84635 v 4.14063 h -1.471354 q -0.221354,-2.05729 -1.380208,-2.96875 -1.145834,-0.92448 -3.502604,-0.92448 -2.057292,0 -3.138021,0.84635 -1.067708,0.83334 -1.067708,2.4349 0,1.39323 0.807291,2.1875 0.807292,0.79427 3.424479,1.57552 l 2.408854,0.71615 q 2.64323,0.79427 3.763021,2.03125 1.132813,1.22395 1.132813,3.29427 0,2.82552 -1.809896,4.25781 -1.809896,1.43229 -5.390625,1.43229 -1.601562,0 -3.268229,-0.32552 -1.653646,-0.32552 -3.372396,-0.98958 z"
         style="font-style:normal;font-variant:normal;font-weight:normal;font-stretch:normal;font-size:26.66666603px;line-height:0;font-family:serif;-inkscape-font-specification:serif;text-align:justify;text-anchor:start;fill:#000000;fill-opacity:1"
         id="path1043"
         inkscape:connector-curvature="0" />
    </g>
  </g>
</svg>
